<svg xmlns="http://www.w3.org/2000/svg" width="627.4" height="476.2267">
  <g fill-rule="evenodd" fill="#eee8d5">
    <path d="M0 476.2267h627.4V.0067H0v476.22"/>
    <path fill="#fdf6e3" d="M115.875 468.2855c8.6047-6.663 14.151-5.4583 16.9323-4.1187 3.5754 1.7229 3.3127 4.986 6.8474 5.9937.6053-3.6317 3.5226-4.7604.1426-11.4338 3.7734 1.9713 7.0307-1.297 9.7094-2.2146-4.6227-1.8062-4.0734-6.137-13.8694-5.4198 8.576-3.0479 18.832-2.8511 24.9414 1.188 5.5626 3.6781 15.9786 14.5833 1.98 21.0427 1.1693 1.6068 2.576 2.6146 4.1146 2.9037H168.5c1.544-.2693 3.172-1.223 4.8-2.9933-.5493 1.075-1.128 2.0594-1.724 2.9933h8.328c4.508-14.1251-1.112-30.4766-26.74-34.0194 12.6747-13.6733 35.2467-10.8504 39.748 12.1844 1.172-1.3734 2.8293-1.441 3.5107-4.1192 1.492 15.0781 9.4146 15.725 16.9893 18.0323-6.9613-9.8421 11.3827-14.1224-.4773-22.8063 1.8546 1.5798 3.5253.8714 5.2866 1.3063-2.2466-5.7073 3.2934-13.6683-6.7413-17.1224 12.2773 1.1005 5.776 14.6407 8.664 21.9593 1.62-1.3448 3.32-.488 4.8613-4.0348-2.9786 15.4906 9.3467 23.0026 20.6947 21.1927-5.6307-12.0287 17.132-20.6599 3.0907-38.2552 2.9466 2.452 4.856 1.5312 7.2853 2.2968-2.5813-5.8724-1.048-15.5285-14.0813-17.6875 5.14-.5374 6.1306-4.9688 9.196-7.453-6.9987.9114-12.3814-8.001-21.9427-5.5428 3.528-1.4974 2.356-4.1552 3.5333-6.2334-7.7666 2.0928-11.6906-6.5842-24.24 1.7438 2.1387-2.1214.8507-3.7802 1.276-5.6698-12.5586 8.6178-19.4786 2.4834-37.6733 25.8506-9.2827 2.3412-16.3293 17.0765-25.908 24.1432-18.6032.2942-39.7308 12.8646-48.1715 34.2344h10.186c2.0151-2.863 4.5302-5.5459 7.6246-7.9412zm113.3543-47.1224c-19.9293-11.3895-35.9746-8.3438-50.44.5714 8.668.1859 13.792 2.2406 17.3027 5.1448-10.62-4.5761-20.2533-3.4234-29.4387.3343 12.8894-12.8672 40.1267-24.9833 62.576-6.0505"/>
    <path fill="#fdf6e3" d="M146.1587 472.8465c-1.5227.94-2.7267 2.0937-3.648 3.3802h14.364c-1.2027-3.7005-5.4707-6.6172-10.716-3.3802M99.7964 421.5236c-8.4297-1.5043-14.2172 4.5635-13.4683 11.0823.9672 8.427 12.8672 11.6353 15.2651 2.8629 6.7115 6.0652 4.0016 17-1.3453 29.297 17.9422-12.6735 15.5214-40.396-.4515-43.2422M134.4093 403.1579c-8.5009 1.0157-11.79 7.9734-9.6593 14.5218 2.8235 8.6782 16.2113 7.8272 16.0367-2.6145 9.6106-1.1599 12.2866 10.9792 3.0373 21.461 20.6173-14.461 6.696-35.2943-9.4147-33.3683M248.84 468.4522c2.3707 2.5104 2.772 5.1026 2.3107 7.7745h7.0226c-1.1506-2.5-3.8946-5.0427-9.3333-7.7745M271.92 462.3012c7.5187 8.9166 15.4347-1.8193 13.9587-6.775-1.6427-5.5183-10.7734-9.5922-16.956-3.2927-6.6267 6.7536-8.3907 16.2015-5.2067 23.9932h12.132c-3.524-3.0901-5.544-8.0797-3.928-13.9255"/>
    <path fill="#fdf6e3" d="M310.768 455.8012c8.8 7.2291 15.6453 5.075 20.456.7796-7.0413-3.4948-17.9893-4.2292-21.1347-14.7615-8.8626-29.6786-44.0373-36.4453-59.5466-26.1692 10.5226 1.2682 17.1186.4896 22.8466 3.1182 15.2214 6.987 16.2507 20.072 7.8654 24.4756 3.0026.527 8.8466 3.6797 11.7453-2.5823-.18 5.0583 4.2853 5.1405 6.428 7.711-2.8533-6.8995 2.612-7.1157 1.624-12.6303 6.992 12.8057 3.6573 26.474-2.688 32.3255-4.0667 3.75-8.9147 2.7672-14.5853 1.2917 1.488 2.2307.8546 4.6927 2.86 6.8672h18.4653c4.1293-5.9854 6.4453-13.3136 5.664-20.4255M349.452 101.9693c-14.7133-10.4426-32.5587-8.112-48.7653-5.908-21.096 2.868-39.5907 8.332-46.5774 13.9027l2.1507 2.9c11.1453-3.032 23.9013-4.0147 29.5427-.8707 4.9786 2.7734 3.0493 9.4454 9.0853 11.0334 2.3107-4.7134 6.8253-9.488 2.2693-17.2667 8.664-.2947 11.756 11.388 21.3 7.1307-.828-2.3667.568-3.992-2.4853-7.096 13.596 8.5293 8.5693 12.7533 12.8533 19.1293 1.2294-3.812 2.028-1.6747 5.0214-9.2307-1.9307 5.4654 2.768 10.264-5.7947 16.3947 6.6373 1.4533 22.6853-1.44 14.5733-17.0027 2.2427 3.6014 3.8814 3.3067 5.8227 4.96-2.1587-5.3946.452-8.3266-6.6787-15.7333 15.5747 11.028 17.6814 21.656 17.9974 32.1933.1973 6.604-2.8734 11.7907-6.5854 12.7334-2.8853.7306-4.6733-2.388-9.916-4.5427.912 4.6293-3.092 8.98 8.1987 13.7427-3.716-.8547-4.5787.364-6.8667.548 2.124 5.9893 9.256 7.5653 14.4694-.2907-3.9467 12.8133-22.2187 19.2213-31.2267 14.016-3.2213-1.8627-2.3227-7.6187-5.2053-11.1093-2.4574-.1547-3.9067 2.6546-5.3094 5.8706-4.9373-5.3666-2.5146-11.1226 1.4587-13.76 2.0827-1.38 4.2987-.7306 6.6867-1.0706.168-2.1094-.6-3.328-2.068-4.2494 2.7466.364 5.0626 1.1734 5.6626 2.812.8774 2.3934-.6453 6.0254.5934 8.2054 7.2626-4.528 8.832-12.3334 3.1106-17.1454-9.6053-8.0786-21.66-3.8306-25.472 8.756-8.2893 27.3614 26.7654 39.1507 45.8267 23.4094 19.6573-16.2334 28.3147-49.756-3.672-72.4614"/>
    <path fill="#fdf6e3" d="M298.1453 132.556c-15.572-11.072-34.5693 13.4453-28.3453 34.512 3.4267-12.9653 8.0787-23.2253 17.104-23.8253-3.556 8.3706 8.436 13.824 13.7533 7.2146 5.624-6.9906 4.188-13.136-2.512-17.9013M270.256 46.976c-2.276 2.256-8.216 9.7587-7.8133 16.016.608 9.4467 11.2506 17.292 19.908 7.5733-1.0214-2.2693-4.8134-2.3466-7.0067-4.0106-2.7347-2.0734-3.5467-5.9014.1227-11.2774-2.1174 5.1614 1.188 6.0494 2.284 8.168 4.5986-10.4813 14.8026-12.2146 22.86-2.208-5.912-4.3266-8.164-1.268-12.2454-1.9026 1.0987 4.4253 4.4574 5.3066 6.7 9.696 3.244 6.344 2.0494 17.2013-15.0893 28.3106 15.6827 1.2054 41.0853-25.8386 21.152-50.0626-7.7173-9.3774-24.2253-6.8907-30.872-.3027M234.7027 92.8933c-7.0227-9.488 1.0093-23.4373 9.796-17.964 1.9333-11.6893-20.9507-12.5826-19.824 6.5734-28.1574-34.244-25.8467-63.0294-3.3134-65.5787-5.812-10.7813-27.3653-2.0227-25.588 12.5053-1.6546-3.484-3.5906-3.2973-5.3866-4.9453-4.364 11.3627-2.2854 23.9787 9.2093 38.4253-7.0173-1.3546-9.7667-10.3426-19.412-8.7213l3.764 7.4747c-6.5267-4.224-9.236-.3694-15.268-5.7587-4.2813-3.8253-1.4013-8.72-7.3853-12.3013-5.9227 13.4426.9506 27.3 20.8813 29.5266-5.16.284-5.4453 1.524-8.168 2.284 6.52 6.8494 13.3627 3.7414 19.844 5.9614 19.4427 6.656 37.2213 16.2093 49.1507 35.9466-5.6-1.2173-6.0814 1.5734-9.1214 2.36 6.3694 8.4494 12.5614 6.26 19.108 25.3494-20.6893-3.884-6.22-14.604-22.2626-25.1947 2.5066-.6467 2.6426-4.5613 7.5013-4.6293-6.404-5.28-11.388-1.1707-14.8227 5.5026-2.224-3.0226-5.144-2.7253-7.716-4.088.88 3.4174-1.1613 6.3 2.6414 10.2507-21.7214-3.0493-32.276 13.42-28.0667 22.272 2.7253 5.7307 1.7707 8.2013-1.352 10.7907 7.0667 4.5506 12.0293-2.7934 12.412-11.424.2107-4.7627.4347-12.5534 11.4093-13.6094L207.12 141.74c5.8013 2.5013 12.2493-5.9147 23.58-.6707 9.9333 4.5974 14.632 14.5534 22.108 11.5187 3.9933 8.7347 5.3453 18.0653 8.0187 27.0973l4.464-4.1946c-1.424-10.3254-3.1214-20.5707-5.7974-30.54 7.644-12.8627-18.5013-43.5627-24.7906-52.0574"/>
    <path fill="#fdf6e3" d="M187.4093 103.156c-6.7333 4.9053-9.564 3.6427-13.8013 5.9373 2.4093 4.024 6.0213 6.1827 11.3893 5.6187-9.1306 2.2333-8.7533 9.3693-27.3946 6.6973 8.204 10.6187 20.3093 15.192 33.3346 1.5627l-3.1613 8.5067c8.4507-2.808 8.5-10.5574 14.236-14.5827 5.0493-3.544 13.6093-4.5387 20.472-1.5293 2.4507-3.7467 5.7427-5.8014 9.416-7.0854-12.324-9.1973-33.1027-13.4226-44.4907-5.1253"/>
    <path fill="#fdf6e3" d="M149.884 86.0333c-19.9652 5.784-32.645.0467-40.3397-13.5773-3.1594 8.3547 3.3937 18.8747 17.1172 22.0533-14.676 13.4294-29.6694 34.3267-32.2427 49.8654-1.6443 9.928 3.0807 18.6093 9.341 14.3493-7.3989-.912-7.1197-16.26 3.4777-30.992-.7146 4.664.1109 7.7987 2.4781 9.4013 4.0532-8.7493 2.8297-15.052 6.961-22.0933 6.4437-10.9853 18.418-20.916 33.4847-24.3267-13.928 6.3027-26.1738 17.8974-27.8738 34.3787-7.3922 11.296-2.2531 27.1827 12.5378 26.8947 2.0227-.0387 9.2747-.3214 14.6347-5.8747 4.8-4.972 5.2213-12.828-3.7493-16.1707 4.524 11.38-8.5934 15.7867-14.5752 9.8014 5.6298 1.0346 8.9272-.244 11.0672-4.4347-6.888-.6747-11.2934-7.6347-9.4454-13.8227 1.968-6.5893 2.4667-13.8493 10.6454-18.0426-3.204 6.3333-2.3334 11.64 3.0493 14.1533-.3707-6.6573 1.996-10.2693 7.4813-16.9133-2.0426 2.8826-1.3066 6.8866 1.452 9.7706 6.208-6.6666 8.6547-13.136 16.3627-15.5626 13.74-4.3227 34.2133-.4347 51.4253 5.064-19.444-18.428-45.448-18.7147-73.2893-13.9214"/>
    <path fill="#fdf6e3" d="M72.173 136.9627c9.7483.0306 19.0515-2.6547 26.4854-13.156 2.839-4.012 3.6104-10.844 8.3197-14.9614-19.4136 2.8934-23.2036 18.7454-34.8052 28.1174M24.9765 145.4093c-7.1333.6894-10.2 9.4547-3.5254 12.736-5.674 4.024-10.649 1.5987-13.6198-7.376-6.672 17.2707 16.5979 25.4934 25.1327 8.648 2.8573-5.64-1.5687-14.6266-7.9875-14.008"/>
    <path fill="#fdf6e3" d="M33.5036 129.772c12.5037-6.888 31.5495-6.8173 48.7595-8.7013-21.3574-4.64-40.4584-6.7067-52.3038.124C19.1645 117.8 9.9813 117.7293 0 116.9533v7.0974c3.3953 1.4973 7.5958 2.844 13.425 3.8826-4.4422 2.2774-8.9198 3.848-13.425 4.8827v34.6267c.3677.3786.7417.7546 1.1375 1.12-5.9266-28.4174 21.577-25.86 32.3661-38.7907M94.9297 71.392c-.1958-9.6213 3.0146-22.124-11.8485-25.0427 2.8068 6.304-8.9552 9.2574-6.5495 18.9507-2.4765-3.768-4.5572-2.5787-6.8358-3.8693-1.8814 4.0853.7125 7.7173-1.7762 10.22-2.7009-10.5987 4.3314-14.6787 6.4975-22.0187-2.2839.2467-3.5032-1.7987-6.8516.74 8.3204-14.6307 1.223-31.404-9.5344-34.0813C60.326 28.6173 30.4797 30.264 34.0516 52.5653c-1.9803-3.1693-4.3281-1.3173-6.4923-1.9773 3.3704 3.3467-4.0453 12.2573 4.6386 20.8427-7.7104-1.0014-11.1334.9986-12.6094 4.3653 9.0203-2.032 3.8418 14.0587 17.924 16.5173-3.2182-.1933-4.927 1.6094-7.3906 2.4134 8.6942.2986 10.176 13.6493 28.186 12.82-2.9532.684-4.0828 2.5653-6.1235 3.848 7.1864-1.7627 7.8104 4.3253 16.152 4.984 16.1433 1.2746 28.1557-2.92 40.1376-12.836-19.7297-1.5347-36.8464-3.404-47.8303-12.1454-8.5421-6.7986-13.727-16.332-14.7186-28.356C51.8473 89.384 72.4959 99.956 91.6973 97.7787c-4.0093-1.9347-7.6656-4.4587-10.5462-8.276 14.6453 10.3186 33.8005 15.0293 41.0234 6.516-16.3677-2.7614-27.0704-16.008-27.2448-24.6267M168.4973.0067h-1.8226c.5906.1106 1.2.108 1.8226 0M175.8413 79.3533c-2.2906-1.1346-4.164-2.7613-5.752-4.7226-25.8706-3.0214-31.58-13.636-28.1253-27.7014-4.416 3.5827-10.9541 4.6494-9.1432 15.3187-16.9457-13.4933-3.9072-21.7-5.8615-32.5493-2.5896 1.2306-10.4926 2.02-9.5082 10.74-2.4402-5.7614-3.1818-12.5467 1.714-16.8654 3.139-2.7693 9.3256-2.9493 16.6549-5.524-7.7747-8.6546-21.5419-5.484-24.7293 5.2374.4202-3.5534-1.9678-3.8107-2.9516-5.716-1.3594 7.02-4.6287 8.144-4.0787 21.0573-3.8672-10.8107-4.4281-26.3773 4.1896-38.6213H98.0645C95.735 5.904 94.3677 12.4693 94.2912 19.636c-.3453 32.3 37.4728 64.5293 81.5501 59.7173"/>
    <path fill="#fdf6e3" d="M149.9973 8.0867c6.364-.2534 8.032-4.5267 6.8774-8.08h-14.364c-6.6774 9.3346 1.904 25.836 17.5333 20.908 9.204-2.9027 16.824-11.4014 19.8587-20.908h-8.3267c-5.3853 8.4586-12.5733 11.1653-21.5787 8.08M254.5027 27.1013c-5.2374-11.672 7.3213-19.1626 3.6706-27.0946h-7.0226c-1.4374 8.316-11.2987 17.392 3.352 27.0946M272.2907 9.956c11.9466 7.2733 25.3533.8613 32.8133-9.9493h-18.4653c.6773.7346 1.6533 1.436 3.1173 2.0853-4.632 2.3533-10.1333 1.224-13.908-2.0853h-12.1307c1.6014 3.92 4.4334 7.428 8.5734 9.9493M11.4323 412.5407c19.0604 15.7406 54.1156 3.9532 45.8276-23.4094-3.8135-12.5869-15.8682-16.8344-25.4724-8.7562-5.7219 4.8125-4.1526 12.6188 3.1109 17.1458 1.238-2.1797-.2859-5.8125.5917-8.2057.6006-1.638 2.9172-2.4464 5.663-2.8125-1.4671.923-2.2354 2.1406-2.0671 4.25 2.3875.3396 4.6047-.3099 6.687 1.0718 3.9723 2.6366 6.3963 8.3934 1.4582 13.759-1.403-3.2162-2.853-6.0262-5.3093-5.8699-2.8834 3.4896-1.9844 9.2459-5.2063 11.1084-9.0077 5.2057-27.2802-1.2021-31.226-14.0156 5.213 7.8552 12.3448 6.2807 14.4697.29-2.289-.1823-3.1514-1.4036-6.8671-.5484 11.2906-4.7615 7.2865-9.112 8.1995-13.7416-5.2444 2.1547-7.0318 5.2744-9.9172 4.5427-3.711-.9427-6.7823-6.1303-6.585-12.7344.3147-10.5364 2.4225-21.164 17.9974-32.1934-7.1301 7.4084-4.5202 10.3408-6.6781 15.7351 1.9407-1.6537 3.5803-1.3595 5.8219-4.961-8.1124 15.5635 7.936 18.4558 14.5724 17.0026-8.5619-6.1301-3.8624-10.9297-5.7943-16.3948 2.9943 7.5563 3.7933 5.4199 5.023 9.2308 4.2838-6.3761-.7443-10.599 12.852-19.1303-3.0526 3.1052-1.6567 4.7318-2.4865 7.0964 9.5454 4.2588 12.6382-7.4245 21.3016-7.1302-4.5557 7.7786-.0416 12.5546 2.2688 17.2656 6.0354-1.5875 4.1063-8.2578 9.085-11.0328 5.6421-3.1443 18.3978-2.1599 29.5426.8713l2.1511-2.8995c-6.986-5.5718-25.4803-11.0358-46.5767-13.9025-16.2061-2.2027-34.0525-4.536-48.7656 5.9093C8.3385 344.883 3.4094 350.172 0 355.6756v43.2776c2.9953 5.212 6.9172 9.8595 11.4323 13.5875"/>
    <path fill="#fdf6e3" d="M66.412 370.6668c-6.701 4.764-8.1375 10.9104-2.513 17.901 5.3166 6.6094 17.3089 1.1553 13.7531-7.2151 9.026.5994 13.6771 10.86 17.1031 23.8245 6.225-21.065-12.7724-45.5817-28.3432-34.5104M63.4281 285.388c-19.9338 24.2253 5.4688 51.2693 21.1511 50.064-17.1385-11.1093-18.3333-21.968-15.089-28.3107 2.2437-4.388 5.601-5.272 6.7005-9.696-4.0814.6347-6.3328-2.4253-12.2448 1.9027 8.0568-10.0067 18.2609-8.2733 22.8588 2.208 1.0974-2.1187 4.4032-3.0067 2.2838-8.168 3.6694 5.3747 2.8579 9.2027.1246 11.2773-2.1948 1.664-5.986 1.7414-7.0079 4.0107 8.6579 9.7187 19.3005 1.872 19.9088-7.5747.4021-6.2573-5.538-13.7586-7.8145-16.0146-6.6464-6.588-23.1542-9.0747-30.8714.3013M195.876 293.0147c-6.032 5.3893-8.7413 1.5346-15.268 5.7573l3.764-7.4733c-9.6453-1.6214-12.396 7.3653-19.412 8.7213 11.4947-14.448 13.5733-27.064 9.2093-38.4253-1.7946 1.648-3.732 1.4613-5.3853 4.944 1.776-14.5267-19.776-23.2854-25.5893-12.504 22.5333 2.548 24.844 31.3346-3.3134 65.5786 1.1267-19.156-21.7562-18.264-19.824-6.572 8.787-5.4746 16.8187 8.4747 9.7963 17.9614-6.2885 8.496-32.4343 39.1953-24.791 52.059-2.6762 9.9686-4.373 20.2144-5.7965 30.539l4.4636 4.1953c2.6724-9.033 4.0255-18.3636 8.0182-27.099 7.4761 3.0365 12.175-6.9193 22.1081-11.5173 11.3307-5.2448 17.7787 3.171 23.58.671l-5.612-7.8386c10.9733 1.0558 11.1973 8.8458 11.408 13.6078.3827 8.6317 5.3453 15.9756 12.4133 11.4245-3.124-2.5885-4.0786-5.0599-1.3533-10.7907 4.2093-8.851-6.3467-25.3197-28.0653-22.2702 3.8013-3.9522 1.76-6.835 2.6413-10.2516-2.5733 1.362-5.492 1.065-7.7173 4.0874-3.4347-6.6733-8.4174-10.7812-14.822-5.5025 4.8573.0687 4.9937 3.9828 7.5006 4.6301-16.0418 10.5896-1.572 21.311-22.2621 25.1938 6.5459-19.0895 12.738-16.8995 19.1073-25.35-3.0406-.787-3.5214-3.576-9.1218-2.3599 11.9286-19.7361 29.7086-29.2895 49.1526-35.9468 6.48-2.22 13.324.8907 19.8427-5.96-2.7227-.7613-3.0067-2-8.1667-2.284 19.9307-2.2267 26.8027-16.084 20.88-29.528-5.9826 3.5813-3.1026 8.476-7.3853 12.3027"/>
    <path fill="#fdf6e3" d="M179.5573 352.822c5.3694.5645 8.9814-1.5953 11.3907-5.6172-4.2373-2.2959-7.0667-1.0328-13.8013-5.9395-11.388-8.296-32.1667-4.072-44.4899 5.1254 3.6739 1.285 6.9645 3.3396 9.4165 7.0876 6.8614-3.0104 15.4214-2.0156 20.4707 1.5286 5.736 4.0244 5.7867 11.7744 14.236 14.5818l-3.16-8.5068c13.024 13.6308 25.1293 9.0562 33.3333-1.5626-18.6413 2.672-18.264-4.4645-27.396-6.6973"/>
    <path fill="#fdf6e3" d="M237.8947 332.6187c13.7226-3.1774 20.2773-13.6987 17.1173-22.052-7.6947 13.624-20.3733 19.36-40.34 13.576-27.8413-4.7934-53.8453-4.5067-73.288 13.9226 17.2093-5.5 37.684-9.3866 51.424-5.064 7.708 2.4254 10.1547 8.8947 16.364 15.5614 2.7573-2.883 3.492-6.888 1.452-9.7694 5.484 6.6443 7.8507 10.2563 7.48 16.9126 5.3827-2.513 6.2533-7.8194 3.0493-14.1539 8.1787 4.1944 8.6774 11.455 10.6454 18.0435 1.848 6.1885-2.5587 13.1484-9.4454 13.8228 2.14 4.1896 5.4374 5.4698 11.0667 4.4344-5.98 5.986-19.0987 1.5781-14.5733-9.8015-8.9707 3.3421-8.5507 11.199-3.7507 16.1703 5.3613 5.553 12.612 5.8358 14.6347 5.875 14.7906.288 19.9306-15.598 12.5386-26.8944-1.7-16.4806-13.9466-28.0754-27.8746-34.378 15.0666 3.4106 27.0413 13.3412 33.4853 24.326 4.1307 7.0411 2.908 13.3438 6.9613 22.0938 2.3667-1.6032 3.192-4.737 2.4774-9.4016 10.5986 14.7322 10.876 30.0797 3.4773 30.9926 6.2613 4.259 10.9853-4.4218 9.3427-14.3504-2.5747-15.539-17.568-36.4349-32.244-49.8658"/>
    <path fill="#fdf6e3" d="M257.5787 346.9559c4.708 4.1161 5.4813 10.9494 8.32 14.961 7.4333 10.5024 16.736 13.1858 26.484 13.1551-11.6014-9.3713-15.3907-25.223-34.804-28.1161M341.5947 334.8053c-4.7907 4.7-3.3947 15.2416 3.2693 16.8016 7.4053 1.7318 13.4693-6.039 7.8747-11.6069 7.072-2.116 11.2506 2.0107 11.184 12.046 12.5826-15.0967-8.02-31.2753-22.328-17.2407"/>
    <path fill="#fdf6e3" d="M402.6547 386.5417c-5.948-10.5478-14.0734-19.3905-29.9747-22.1432 8.68-8.3062 9.2107-18.4374 4.0253-27.9665-3.7026 30.5873-30.4893 18.6655-45.7333 27.9977-14.912 2.673-34.0387-3.8724-51.984-7.8254 19.8987 11.9234 38.4 20.4973 52.6307 17.6578 14.8986 10.8744 28.632 12.56 45.0373 22.75-8.708-7.9677-9.6213-14.8428-26.1213-23.9062 19.4586-2.8964 36.1733 3.9114 52.12 13.4358"/>
    <path fill="#fdf6e3" d="M332.3587 309.5413c8.684-8.5853 1.268-17.496 4.6386-20.8413-2.164.6573-4.512-1.192-6.492 1.976 3.5707-22.3013-26.276-23.948-23.98-36.2747-10.7573 2.6774-17.856 19.4507-9.5346 34.08-3.3494-2.5386-4.568-.492-6.852-.7386 2.1666 7.3386 9.2 11.42 6.4973 22.0173-2.488-2.5013.1053-6.1333-1.776-10.2187-2.2787 1.2894-4.3587.1-6.836 3.8694 2.4067-9.6947-9.356-12.648-6.5493-18.9507-14.8627 2.9187-11.652 15.42-11.848 25.0427-.1747 8.6186-10.8774 21.864-27.2454 24.6266 7.2227 8.512 26.3787 3.8014 41.024-6.516-2.8813 3.8174-6.5373 6.3414-10.5453 8.276 19.2 2.1774 39.8493-8.396 45.7707-34.7386-.9907 12.0253-6.176 21.5573-14.7187 28.3573-10.984 8.74-28.1 10.6107-47.8307 12.1453 11.9827 9.916 23.9947 14.1098 40.1374 12.8364 8.3426-.6589 8.9666-6.7474 16.1533-4.9844-2.0413-1.2822-3.1707-3.164-6.124-3.8489 18.0107.8307 19.492-12.5204 28.1867-12.819-2.464-.804-4.172-2.608-7.3907-2.4134 14.0813-2.4587 8.904-18.5493 17.924-16.5173-1.476-3.3654-4.9-5.368-12.6093-4.3654M218.32 203.8827c-9.5773-7.068-16.624-21.8027-25.908-24.144-18.1947-23.3667-25.1147-17.2334-37.672-25.8507.424 1.8907-.8627 3.5493 1.2747 5.6693-12.5494-8.328-16.4734.3494-24.2402-1.7426 1.1782 2.0773.0062 4.736 3.5335 6.232-9.561-2.4587-14.944 6.4546-21.9413 5.544 3.064 2.484 4.0546 6.9146 9.1953 7.452-13.0344 2.16-11.5016 11.8173-14.0817 17.6893 2.4285-.7653 4.3385.1547 7.2858-2.2987-14.0416 17.596 8.7208 26.228 3.0902 38.256 11.3489 1.8107 23.673-5.7013 20.6957-21.192 1.54 3.5467 3.24 2.6894 4.86 4.0347 2.888-7.32-3.6147-20.86 8.664-21.96-10.0333 3.4547-4.4947 11.4147-6.7427 17.1227 1.7627-.436 3.4347.2746 5.288-1.3067-11.8586 8.6853 6.484 12.964-.476 22.8067 7.5734-2.3067 15.496-2.9547 16.988-18.032.6814 2.6786 2.34 2.7453 3.5094 4.1186 4.5026-23.0346 27.076-25.8573 39.7493-12.184-42.8787 5.928-29.7587 47.712-6.8787 54.9267 17.784 5.6093 26.4507-16.5333 13.884-24.288-10.2813-6.3453-16.8333 10.9453-3.8386 11.4613-9.9987 3.4254-17.768-.2666-23.304-11.0746 4.0053 4.352 8.0133 3.84 10.7426.0906-13.9973-6.46-3.5826-17.3653 1.98-21.044 6.1094-4.0386 16.3667-4.2346 24.9414-1.1866-9.796-.7187-9.2467 3.6133-13.8694 5.42 2.6774.9173 5.936 4.184 9.7094 2.2146-3.38 6.672-.4627 7.8014.1426 11.4334 3.5347-1.008 3.272-4.272 6.848-5.9934 2.78-1.34 8.3267-2.5453 16.932 4.1174 16.328 12.644 16.5854 33.224 11.8134 46.564.552-12.9134-2.7187-14.0387-4.0774-21.0574-.984 1.9054-3.372 2.1614-2.952 5.7147-3.1866-10.72-16.9546-13.8907-24.7293-5.236 7.3293 2.5747 13.516 2.7547 16.6547 5.5227 4.896 4.32 4.1546 11.1053 1.7146 16.8666.984-8.72-6.92-9.5106-9.508-10.7413-1.9546 10.8493 11.084 19.0573-5.8613 32.5493 1.8107-10.6693-4.7267-11.7346-9.144-15.3186 3.456 14.0666-2.2533 24.6813-28.1253 27.7013-1.588 1.9627-3.4614 3.588-5.752 4.724 44.0773 4.8107 81.8946-27.4173 81.5506-59.7173-.3533-33.132-28.208-53.488-51.9453-53.864zm-49.856-15.1134c3.5107-2.9026 8.6347-4.9586 17.304-5.1453-14.4667-8.9147-30.512-11.96-50.4413-.5707 22.4493-18.9333 49.6866-6.8173 62.5773 6.0507-9.1853-3.7587-18.82-4.9107-29.44-.3347"/>
    <path fill="#fdf6e3" d="M264.76 183.4133c-15.9733 2.8467-18.3947 30.568-.452 43.2427-5.3467-12.2987-8.0573-23.232-1.3453-29.2973 2.3973 8.772 14.2973 5.564 15.2653-2.8627.748-6.52-5.0387-12.5853-13.468-11.0827M230.1467 165.0467c-16.1107-1.9254-30.032 18.908-9.4134 33.3693-9.2493-10.4813-6.5733-22.6213 3.036-21.4613-.1746 10.4413 13.2147 11.2933 16.0374 2.616 2.1306-6.5494-1.1587-13.508-9.66-14.524M115.7161 230.3413c-22.6978 11.4027 1.226 19.5187-5.663 34.8694 19.3557-12.82-4.0875-24.544 5.663-34.8694M91.1672 180.6587c5.7287-2.6294 12.323-1.8507 22.8464-3.12-15.51-10.276-50.6833-3.508-59.547 26.1706-3.1458 10.532-14.0937 11.2654-21.1354 14.7614 4.8115 4.2946 11.6568 6.4493 20.4584-.78-2.1932 19.96 19.9156 41.676 38.476 30.3746 12.3704-7.5306 13.3287-23.792 3.3672-33.9426-6.1817-6.3-15.3125-2.224-16.9552 3.292-1.476 4.9573 6.4401 15.6933 13.9584 6.776 3.3473 12.1093-8.8781 20.564-17.836 16.012 5.7984-2.572 3.986-5.9694 5.9787-8.9534-5.6719 1.4747-10.5188 2.4587-14.5866-1.292-6.3457-5.8506-9.679-19.5186-2.6874-32.3253-.9886 5.5133 4.4765 5.7307 1.6234 12.6307 2.1427-2.5707 6.6083-2.6534 6.4271-7.712 2.899 6.2626 8.7437 3.1106 11.7464 2.5826-8.385-4.4026-7.3557-17.488 7.8656-24.4746M590.2547 131.6693c8.492 7.62 18.412 13.06 33.4346 10.7187-4.9626 9.5013-2.8986 18.2573 3.7107 25.0547V132.816c-12.22 2.8053-24.6453 1.5493-37.1453-1.1467M627.4 124.0507v-7.0974c-5.348-.4146-10.9187-1.0293-17.1-2.4746 6.7773 2.9866 10.328 6.5826 17.1 9.572M627.4 398.9507v-43.2735c-9.0067 14.5407-7.2853 30.5937 0 43.2735M20.2027 294.9693c-3.0715 6.7-7.1345 8.1534-11.1866 4.548 5.4536-1.9706 3.8282-9.0266-1.6406-10.1706C4.048 288.6507 1.0578 291.436 0 294.74v4.812c5.1901 13.7413 23.889 9.36 20.2027-4.5827"/>
    <path fill="#fdf6e3" d="M23.8656 309.332c6.411-4.736 9.2027-11.6467 6.001-19.8693 11.4413 3.1026 19.5949-.264 26.8293-5.4414-13.5735 1.3934-26.8152.7374-38.8708-7.2293 13.7978-.9147 16.54-5.2067 24.8104-7.8107-14.085 1.692-23.7522-1.448-37.0464 1.172C3.949 268.948 2.074 267.976 0 267.1987v7.9666c.7286.4214 1.4375.86 2.1073 1.332 7.2526 10.9454 28.7864 11.32 21.7583 32.8347M13.0453 239.2653c14.0807-2.4586 8.9031-18.5493 17.9235-16.5173-1.4761-3.3667-4.899-5.3667-12.6095-4.3653 8.6834-8.5854 1.2683-17.496 4.6386-20.8414-2.164.6587-4.5124-1.1933-6.4922 1.976C18.7427 185.5507 7.8734 179.6853 0 174.224v48.652c1.9693-3.7813 3.549-8.0667 4.6323-12.884-.5026 6.0933-2.0854 11.5427-4.6323 16.3253v27.5294c10.948-2.6254 13.1948-11.92 20.4355-12.168-2.4636-.804-4.1724-2.608-7.3902-2.4134M3.7708 437.1579c-1.2963.1718-2.5442.4281-3.7708.725v26.0078c1.1677.7865 2.4505 1.5063 4.2505 1.9287-1.5729-3.3687.3209-2.4235-2.4187-9.4558 2.1406 4.9385 8.374 5.2303 6.427 14.8188 5.4319-3.2083 14.523-15.3255-.8421-20.7855 3.8047 1.0319 4.7328-.2025 7.1026-.3057-4.8818-2.3057-4.9558-5.9515-14.4953-6.4843 17.5719-2.3448 25.727 3.5572 32.6047 10.5244 4.3104 4.3703 5.4994 9.8417 3.5718 12.8297-1.5 2.323-4.6917 1.3297-9.6224 3.1839 3.5506 2.5687 3.5776 8.0625 14.2719 4.1625-1.1932.6875-1.8921 1.3151-2.3885 1.9193h7.1645c.7365-1.6547 1.0037-3.849.559-6.5521.9967 2.0625 1.5234 4.2849 1.665 6.552h4.5803c-.8814-21.415-16.5298-43.3187-48.6595-39.0687M17.8995 475.124c-1.949.0959-3.7088.4933-5.2927 1.1027h10.203c-1.3749-.7839-3.0238-1.1953-4.9103-1.1026M45.6255.0067h-7.164c-.7808.9493-1.0568 1.8373-1.9386 2.7986 3.5974 1.876 7.4844.8387 9.1026-2.7986"/>
    <path fill="#fdf6e3" d="M6.1036 20.9707C17.7677 44.828 49.074 30.684 52.0906 7.9213c.3443-2.596.449-5.252.3397-7.9146H47.85c.6297 10.0533-6.3636 20.9746-14.051 22.7306-3.3693.7707-6.3974-3.7146-10.5667-4.2666-1.7692 1.4493-.9776 4.2773.0994 7.3533-6.7541-.5293-8.7432-5.9787-7.7062-10.2853.5396-2.2547 2.4614-3.2147 3.8718-4.9574-1.2208-1.5426-2.5134-1.8826-4.0957-1.5866 2.101-1.4867 4.1875-2.4014 5.6323-1.6654 2.1109 1.0734 3.3697 4.5094 5.5916 5.208 1.5157-5.5866-.1348-10.432-3.8151-12.5306H12.6047c-7.8734 3.0306-10.9672 11.8266-6.501 20.964M363.988 192.14c-38.1667-9.04-57.636 19.592-56.852 45.0747.7587 24.7093 32.7573 43.2586 47.84 18.9706 6.936-11.1746 2.1667-23.032-10.2427-24.9133-7.3906-1.1213-12.2173 5.2093-10.824 13.6547 2.4547-.5067 4.1774-4.052 6.5534-4.972 1.628-.6294 3.764.576 5.8506 2.3946-1.66-.4893-3.0826-.2626-4.5546 1.2547 1.32 2.0173 3.272 3.2547 3.608 5.732.6426 4.7213-2.08 10.344-9.372 10.176 1.4906-3.1787 2.6413-6.1187.9053-7.864-4.5253.1387-8.2547 4.6147-11.7813 3.424-9.8574-3.3307-17.1054-21.284-10.0854-32.7067-2.4613 9.1014 3.4294 13.4187 9.3334 11.06-1.3747-1.84-1.0267-3.292-4.1227-5.5186 11.0293 5.336 11.6547-.544 15.7347-2.9147-5.0814-2.5173-8.604-1.8-9.9587-4.4507-1.7413-3.4106.1267-9.1413 5.2173-13.352 8.1227-6.7213 17.496-12.152 36.064-7.7346-10.2693-.4627-10.7493 3.432-16.2293 5.3733 2.5253.3627 3.3853 1.7893 7.572 1.0973-17.048 4.18-8.624 18.144-3.1533 22.1707-1.0454-10.4787 5.66-10.1173 8.4906-15.176-3.7 7.236-1.5666 6.4267-3.6173 9.8667 7.6173-.9934 7.4693-7.5574 22.8547-2.9747-4.348-.2427-4.6507 1.8773-6.9734 2.8173 3.1027 9.98 13.9187 4.592 19.4187 11.2907-8.8507 1.716-9.4587 8.2587-11.4707 13.1027 5.176 3.4853 8.9134-2.3667 14.2827-.4574 6.0867 2.1614 13.768 12.392 18.8507 22.764l3.596-.2973c-.428-8.924-8.532-26.4253-20.304-44.1627-9.0454-13.6293-19.0734-28.572-36.6307-32.7293M379.8147 279.508c-6.7027 4.764-8.1374 10.9107-2.5134 17.9027 5.316 6.608 17.308 1.1546 13.7534-7.216 9.0266.6 13.6773 10.86 17.104 23.8253 6.224-21.0667-12.7734-45.584-28.344-34.512M408.0027 177.6587c-23.6814 9.1093-16.5747 38.2613-5.0574 43.6613-7.636-14.6467-4.152-22.764.6574-25.9373 3.3293-2.1934 6.0413-1.4787 8.5786-4.156-3.124-1.1787-3.4906-4.228-9.3773-3.5374 9.66-3.8333 16.1493 1.4534 15.2093 10.6627 1.6174-1.056 4.296-.364 4.8614-4.84.4426 5.244-1.6534 7.6133-4.4067 7.9853-2.2053.2987-4.904-1.1586-6.528.032 2.2213 10.2894 12.8387 9.0094 17.0307 2.6 2.7746-4.2426 1.584-11.8906.8826-14.384-2.0573-7.284-12.684-15.6133-21.8506-12.0866"/>
    <path fill="#fdf6e3" d="M509.2787 201.856c-6.032 5.3893-8.7414 1.5347-15.268 5.7587l3.7653-7.4747c-9.6467-1.6213-12.396 7.3653-19.4133 8.7213 11.4946-14.4466 13.5733-27.0626 9.2093-38.4253-1.796 1.648-3.732 1.4627-5.3853 4.944 1.776-14.5267-19.776-23.2853-25.588-12.504 22.532 2.548 24.844 31.3347-3.3147 65.5787 1.1267-19.156-21.756-18.264-19.824-6.5734 8.7867-5.4733 16.8187 8.476 9.796 17.9627-6.288 8.496-32.4333 39.1947-24.7907 52.0587-2.676 9.9693-4.3733 20.2146-5.796 30.5386l4.4627 4.1947c2.6733-9.032 4.0253-18.3613 8.0187-27.0973 7.476 3.036 12.176-6.9187 22.108-11.5174 11.3306-5.2453 17.7786 3.172 23.58.6707l-5.612-7.8387c10.9746 1.056 11.1973 8.8467 11.408 13.6094.3826 8.6306 5.3453 15.9733 12.412 11.4226-3.1227-2.588-4.0774-5.06-1.352-10.7893 4.2093-8.852-6.3467-25.3213-28.0667-22.272 3.8027-3.952 1.76-6.8333 2.6427-10.2507-2.5734 1.3627-5.492 1.0654-7.7187 4.088-3.4347-6.6733-8.416-10.7826-14.8213-5.5026 4.8586.068 4.9933 3.9826 7.5013 4.6293-16.0413 10.5893-1.572 21.3107-22.2627 25.1933 6.5467-19.088 12.7387-16.8986 19.108-25.348-3.04-.7866-3.5226-3.5773-9.1226-2.36 11.9306-19.7373 29.7093-29.292 49.152-35.948 6.4826-2.2186 13.3253.8894 19.844-5.96-2.7227-.7613-3.008-2-8.1667-2.284 19.9307-2.2266 26.8027-16.084 20.88-29.5266-5.984 3.5813-3.104 8.476-7.3853 12.3013"/>
    <path fill="#fdf6e3" d="M492.96 261.664c5.368.5653 8.9827-1.5947 11.3907-5.6187-4.2387-2.2946-7.0667-1.032-13.8-5.9373-11.3894-8.2973-32.168-4.072-44.4907 5.1253 3.672 1.284 6.964 3.3387 9.416 7.0867 6.8627-3.012 15.42-2.0173 20.472 1.528 5.7347 4.024 5.784 11.7747 14.2347 14.5827l-3.16-8.5067c13.024 13.6293 25.1293 9.056 33.3333-1.5627-18.6413 2.672-18.264-4.4653-27.396-6.6973"/>
    <path fill="#fdf6e3" d="M551.2973 241.46c13.7227-3.1773 20.276-13.6973 17.1174-22.052-7.696 13.624-20.3734 19.3613-40.34 13.576-27.8414-4.7933-53.8454-4.5053-73.2894 13.9227 17.212-5.4987 37.6854-9.3867 51.4254-5.064 7.708 2.4253 10.1546 8.8946 16.364 15.5613 2.756-2.8827 3.492-6.8867 1.4506-9.7693 5.4854 6.644 7.8534 10.256 7.48 16.9133 5.3854-2.5133 6.256-7.8187 3.0494-14.1533 8.18 4.192 8.6786 11.4533 10.6466 18.0426 1.848 6.188-2.5573 13.148-9.4453 13.8227 2.14 4.1907 5.4373 5.4693 11.068 4.4347-5.9827 5.9853-19.1 1.5786-14.5747-9.8014-8.9706 3.3427-8.5506 11.1974-3.7493 16.1707 5.3587 5.5533 12.6093 5.8347 14.6333 5.8747 14.7907.2866 19.9307-15.5974 12.5387-26.8947-1.7013-16.4813-13.9453-28.076-27.8747-34.3787 15.068 3.4107 27.0414 13.3427 33.484 24.3267 4.132 7.0413 2.9094 13.344 6.9627 22.0933 2.3653-1.604 3.192-4.7373 2.4773-9.4 10.5987 14.7294 10.8774 30.0774 3.4774 30.9907 6.2613 4.26 10.9853-4.4213 9.3413-14.3507-2.5733-15.5386-17.5667-36.4346-32.2427-49.8653"/>
    <path fill="#fdf6e3" d="M570.9813 255.7973c4.708 4.1174 5.48 10.9494 8.32 14.96 7.4334 10.5027 16.736 13.188 26.484 13.1574-11.6013-9.3734-15.3906-25.224-34.804-28.1174M627.388 299.5173c.0027.0107.008.0187.012.0307v-4.804c-.5053 1.5813-.572 3.28-.012 4.7733M592.468 265.5747c12.2053 2.72 25.7667 4.2813 34.932 9.5906v-7.9666c-8.7947-3.2987-21.2173-3.052-34.932-1.624"/>
    <path fill="#fdf6e3" d="M617.3147 238.3493c-10.984 8.7414-28.0987 10.6107-47.8294 12.1454 11.9814 9.916 23.9947 14.1106 40.136 12.836 8.3427-.6587 8.9667-6.7467 16.1547-4.984-2.0427-1.2827-3.172-3.164-6.124-3.848 3.0093.1386 5.5507-.124 7.748-.652V226.32c-2.4787 4.6547-5.872 8.676-10.0853 12.0293"/>
    <path fill="#fdf6e3" d="M619.928 163.2427c-10.7587 2.6773-17.856 19.4506-9.5347 34.08-3.348-2.5387-4.568-.492-6.852-.7387 2.1667 7.34 9.1987 11.42 6.4974 22.0187-2.488-2.5027.1053-6.1347-1.776-10.22-2.2787 1.2893-4.36.1-6.836 3.8693 2.4066-9.6947-9.356-12.648-6.5494-18.9507-14.8626 2.92-11.6533 15.42-11.848 25.0427-.1746 8.6187-10.8773 21.864-27.2453 24.6267 7.2227 8.5133 26.3773 3.8026 41.024-6.516-2.88 3.8173-6.536 6.3413-10.5467 8.2773 15.6894 1.7773 32.3414-4.9613 41.1387-21.8547V174.224c-4.6973-3.2587-8.3307-6.3747-7.472-10.9813M531.7213 112.724c-9.576-7.068-16.6226-21.8027-25.9066-24.144-18.196-23.3667-25.1147-17.2333-37.672-25.8493.424 1.8893-.864 3.548 1.2746 5.668-12.5493-8.328-16.472.3493-24.24-1.7427 1.1774 2.0773.0054 4.736 3.5347 6.232-9.5627-2.4573-14.9453 6.4547-21.9427 5.544 3.064 2.4853 4.0547 6.9147 9.1947 7.4533-13.0333 2.1587-11.5013 11.8147-14.08 17.688 2.428-.7653 4.3373.1547 7.2853-2.2973-14.0426 17.596 8.7214 26.2267 3.0894 38.2547 11.348 1.8106 23.6746-5.7014 20.6946-21.192 1.5414 3.5466 3.2414 2.6906 4.8614 4.036 2.888-7.32-3.6134-20.8614 8.664-21.9614-10.0334 3.4547-4.4947 11.416-6.7427 17.1227 1.764-.4347 3.4333.2733 5.288-1.3053-11.86 8.684 6.4827 12.9626-.476 22.8053 7.5733-2.3067 15.496-2.9533 16.988-18.032.6827 2.6773 2.34 2.7467 3.5107 4.1187 4.5013-23.0347 27.0733-25.8574 39.748-12.184-42.8787 5.928-29.7574 47.7133-6.88 54.928 17.784 5.608 26.452-16.5334 13.8853-24.288-10.2813-6.3467-16.8333 10.944-3.8387 11.46-10 3.4253-17.768-.2654-23.3026-11.0734 4.0026 4.352 8.0106 3.8387 10.7413.0894-13.9973-6.46-3.5827-17.3654 1.98-21.0427 6.1093-4.04 16.3667-4.236 24.9427-1.188-9.7974-.7173-9.248 3.6133-13.8707 5.42 2.6773.9173 5.936 4.1853 9.7093 2.2147-3.38 6.6733-.4626 7.8013.1427 11.432 3.5347-1.0067 3.272-4.2707 6.848-5.992 2.7813-1.34 8.3267-2.5454 16.932 4.1173 16.328 12.644 16.5853 33.2253 11.8133 46.564.5507-12.9133-2.7186-14.0387-4.0773-21.0573-.984 1.9053-3.372 2.1626-2.952 5.7146-3.188-10.72-16.9547-13.8906-24.7293-5.2373 7.3293 2.576 13.5173 2.756 16.6546 5.524 4.896 4.3187 4.1547 11.1053 1.7147 16.8667.984-8.7187-6.9187-9.5094-9.508-10.74-1.9547 10.8493 11.084 19.0573-5.8613 32.5493 1.812-10.6693-4.728-11.736-9.144-15.3187 3.456 14.0654-2.2534 24.68-28.1254 27.7-1.588 1.9627-3.4613 3.588-5.752 4.724 44.0774 4.812 81.8947-27.4173 81.552-59.7173-.3546-33.132-28.2093-53.488-51.948-53.864zm-49.8546-15.1133c3.512-2.9027 8.6333-4.9574 17.3026-5.1454-14.4653-8.9146-30.5106-11.96-50.44-.5706 22.4494-18.9334 49.6867-6.816 62.5774 6.0506-9.1867-3.7586-18.82-4.9106-29.44-.3346"/>
    <path fill="#fdf6e3" d="M578.1613 92.2547c-15.972 2.8466-18.392 30.5693-.4506 43.2426-5.3467-12.2973-8.056-23.232-1.3454-29.2973 2.3987 8.7733 14.2987 5.564 15.2654-2.8627.7493-6.52-5.0387-12.5853-13.4694-11.0826M543.5493 73.888c-16.1093-1.924-30.032 18.908-9.4133 33.3693-9.2507-10.4813-6.5747-22.6213 3.036-21.46-.1747 10.44 13.2133 11.292 16.0373 2.6147 2.1294-6.548-1.1573-13.508-9.66-14.524M429.1187 139.184c-22.6974 11.4027 1.2253 19.5187-5.6627 34.8693 19.356-12.8213-4.088-24.5453 5.6627-34.8693M377.4907 93.3747c-4.8 7.7266-13.7014 5.9386-20.0827 7.2026 2.912 4.4734 7.9093 7.68 16.5053 3.8147-6.0773 15.464 6.868 37.5973 24.1387 32.6 11.5133-3.3307 15.8027-16.1093 10.048-26.3747-3.568-6.372-11.744-5.0986-14.2493-1.0493-2.2547 3.64 1.7373 13.9307 9.6773 8.4413.044 10.3934-11.5507 14.496-17.7187 8.9147 5.1907-.7947 4.4787-3.9013 6.716-5.8533-4.8466-.0507-8.932-.3147-11.368-4.1934-3.796-6.0493-3.4933-17.6866 4.8654-26.396-1.984 4.188 2.332 5.5467-1.4427 10.4374 2.2707-1.588 5.8547-.684 6.8053-4.7627.956 5.628 6.3067 4.38 8.8214 4.6093-5.7414-5.336-2.084-15.5613 11.588-17.8373 5.1453-.8587 10.2413 1.1907 18.9213 2.4613C420.56 73.8227 391 71.596 377.4907 93.3747M594.2547 463.973c-3.3827 4.1245-6.5067 8.2552-9.3067 12.2537h18.6787c-1.2307-1.4193-2.988-2.625-5.64-3.422 5.7053-5.6806 15.1986.3168 19.0026-8.6187-2.0573-1.0854-2.1386-3.075-6.1786-3.2552 10.8506-2.0697 13.2493.7152 16.5893 2.96v-26.0079c-14.4907 3.4964-24.2627 15.2588-33.1453 26.0901M583.4547 412.0303c-10.404-3.0058-21.2907 7.1485-22.856 15.3448-.5374 2.8073-1.1214 11.3193 2.328 15.7188 5.2106 6.6406 16.996 7.0442 18.4613-4.4699-1.8933-1.1541-4.7213.7016-7.1733.5844-3.0574-.1457-5.5854-2.552-5.6-8.3557 1.0466 4.8636 3.9266 3.8505 5.8013 4.8557-1.9053-10.0276 4.7253-16.4479 15.6987-13.151-6.532-.2031-6.644 3.1838-9.9667 4.776 3.0413 2.698 5.9573 1.6537 9.8173 3.75 5.5854 3.0287 10.1827 11.6173 3.18 28.4287 12.14-7.0182 17.1827-39.7193-9.6906-47.4818M557.9013 459.9923c1.932-11.6911-20.9506-12.5834-19.824 6.573-28.1573-34.2449-25.848-63.0298-3.3133-65.5782-5.8133-10.7823-27.3653-2.0235-25.5893 12.5041-1.6534-3.4833-3.5907-3.2968-5.3854-4.9452-4.364 11.363-2.2866 23.9785 9.2107 38.4255-7.0173-1.3552-9.7693-10.3422-19.4133-8.7214l3.764 7.4739c-6.5267-4.2239-9.236-.3681-15.268-5.7577-4.2814-3.8266-1.4027-8.7214-7.3854-12.3022-5.9213 13.4428.9507 27.2995 20.8814 29.5271-5.16.2839-5.4454 1.5235-8.168 2.2839 6.5186 6.8505 13.3626 3.7412 19.844 5.9599 8.3666 2.8646 16.4213 6.2734 23.8386 10.7917h15.924c-4.9773-9.3438 2.6174-21.3844 10.884-16.2344M463.2867 471.0939c-19.9654 5.7854-32.6454.0479-40.3387-13.5756-2.4187 6.3907.8653 14.0391 8.6787 18.7084h30.18c.584-.1537 1.164-.3162 1.7573-.4506-.3147.1433-.624.3021-.9373.4506h61.876c-17.5707-9.5495-38.796-8.9922-61.216-5.1328M408.3333 456.4548c-.1973-9.623 3.0134-22.124-11.8493-25.0432 2.8067 6.302-8.9547 9.2567-6.5493 18.9505-2.4774-3.7698-4.5574-2.5792-6.836-3.8698-1.8814 4.086.712 7.7188-1.776 10.2204-2.7014-10.598 4.332-14.6787 6.4973-22.0183-2.284.2468-3.5027-1.7995-6.852.7396 8.32-14.6308 1.2227-31.4037-9.5333-34.0813 2.2933 12.327-27.552 13.9729-23.9814 36.275-1.98-3.1693-4.328-1.3177-6.492-1.9765 3.372 3.3463-4.044 12.2567 4.64 20.841-7.7106-1.001-11.1346 1-12.6093 4.3657 8.1-1.825 4.7573 10.9615 14.1907 15.3688h26.5853c-8.3733-6.7839-13.4587-16.2328-14.44-28.1251 2.972 13.2204 9.6547 22.4662 18 28.125h18.6147c-.4787-.5286-.9454-1.0739-1.388-1.6614.812.573 1.64 1.125 2.4786 1.6615h25.6c-8.8373-5.3828-14.1786-13.7136-14.3-19.7719"/>
    <path fill="#fdf6e3" d="M555.3973 323.9947c5.14-.5374 6.1307-4.968 9.196-7.452-6.9986.9106-12.3813-8.0014-21.9426-5.544 3.5266-1.4974 2.3546-4.1547 3.5333-6.2334-7.7667 2.092-11.6907-6.584-24.2387 1.744 2.136-2.12.8494-3.7786 1.2734-5.6693-12.5574 8.6173-19.4774 2.4827-37.672 25.8507-9.284 2.3413-16.3294 17.0766-25.908 24.1428-23.7374.376-51.5907 20.7333-51.9454 53.8645-.3453 32.2995 37.4734 64.5287 81.5507 59.7172-2.2907-1.1349-4.164-2.7615-5.7507-4.724-25.8733-3.0192-31.5813-13.6339-28.1266-27.7-4.416 3.5833-10.9547 4.6485-9.1427 15.3188-16.9453-13.4932-3.908-21.7005-5.8613-32.5495-2.5894 1.2307-10.4934 2.0208-9.5094 10.7411-2.44-5.7619-3.1813-12.5484 1.7147-16.8661 3.1387-2.7692 9.3253-2.9495 16.6533-5.5244-7.7733-8.6538-21.5413-5.4834-24.728 5.2364.42-3.5515-1.968-3.8094-2.9506-5.7146-1.36 7.0198-4.6307 8.1432-4.08 21.0574-4.7707-13.3387-4.512-33.9194 11.816-46.5642 8.604-6.6625 14.1506-5.4568 16.932-4.1172 3.5733 1.7214 3.312 4.986 6.8466 5.9927.6067-3.6317 3.5227-4.7604.1427-11.4337 3.7733 1.9713 7.0307-1.2954 9.7093-2.2136-4.624-1.8074-4.0733-6.138-13.8693-5.4203 8.5747-3.0475 18.832-2.8521 24.9413 1.1885 5.5627 3.6771 15.9774 14.5823 1.98 21.0416 2.7294 3.75 6.7374 4.2631 10.7427-.0885-5.5373 10.8073-13.3053 14.499-23.304 11.073 12.9933-.5157 6.4427-17.8063-3.84-11.4594-12.5653 7.7536-3.8987 29.8957 13.8853 24.2875 22.88-7.2146 36-48.9984-6.8786-54.9287 12.6733-13.672 35.2466-10.8493 39.7493 12.1855 1.1693-1.3724 2.828-1.4418 3.5107-4.1199 1.4906 15.0776 9.4133 15.7267 16.988 18.0324-6.9614-9.8428 11.3813-14.1215-.476-22.8048 1.8533 1.5792 3.524.8699 5.2853 1.3048-2.2467-5.7068 3.2933-13.6673-6.74-17.122 12.2773 1.1 5.7747 14.6401 8.6627 21.9605 1.62-1.3448 3.32-.4896 4.86-4.0365-2.9774 15.4923 9.348 23.0027 20.6973 21.1927-5.632-12.0286 17.1307-20.6604 3.0893-38.2554 2.9467 2.4534 4.8574 1.5334 7.2854 2.2987-2.5814-5.872-1.0467-15.5307-14.0814-17.6893zm-63.2053 6.5813c8.668.1867 13.792 2.2413 17.3027 5.1453-10.6187-4.576-20.2547-3.424-29.44.3334 12.8906-12.8667 40.128-24.9827 62.5773-6.0494-19.9293-11.3906-35.9747-8.3453-50.44.5707"/>
    <path fill="#fdf6e3" d="M413.1987 330.3653c-8.4294-1.5026-14.216 4.564-13.468 11.0827.968 8.427 12.868 11.6355 15.264 2.862 6.7133 6.065 4.0026 17-1.344 29.2979 17.9426-12.6739 15.5213-40.3972-.452-43.2426M447.8133 311.9987c-8.5026 1.016-11.792 7.976-9.66 14.524 2.8227 8.6773 16.2107 7.8253 16.036-2.616 9.6107-1.1587 12.2867 10.98 3.0374 21.4606 20.6173-14.4606 6.696-35.2926-9.4134-33.3686M562.2427 377.2944c9.7506 10.323-13.692 22.0479 5.6626 34.8687-6.888-15.3504 17.0347-23.4676-5.6626-34.8687M609.1067 343.2516c-6.7187-22.5063-33.3974-27.6396-45.1614-19.8463 7.98.96 12.984.3707 17.3254 2.3654 11.5453 5.2973 12.3266 15.2213 5.9666 18.5628 2.28.4025 6.7134 2.7905 8.9094-1.9575-.1387 3.8367 3.2493 3.9001 4.876 5.8455-2.164-5.2318 1.98-5.3975 1.228-9.5762 5.304 9.7126 2.7773 20.0762-2.0347 24.5178-3.088 2.8422-6.764 2.0974-11.0653.9766 1.5106 2.2656.1373 4.8396 4.536 6.7891-6.796 3.4557-16.0667-2.96-13.5267-12.1423 5.7 6.7631 11.704-1.3786 10.5853-5.138-1.2453-4.1858-8.1733-7.2745-12.8573-2.4958-7.5573 7.699-6.8307 20.0297 2.552 25.7422 14.076 8.5698 30.844-7.9 29.1827-23.039 6.6733 5.4844 11.864 3.85 15.5133.5921-5.3373-2.65-13.6413-3.2068-16.0293-11.1964M571.352 26.6627l3.2973.616c5.6694-9.1107 13.724-17.8467 19.552-19.276 5.1387-1.26 8.0507 4.5013 13.1587 1.7653-.9427-3.1253-1.2413-6.888-3.7333-9.7613H584.948c-7.5747 10.824-12.6973 20.664-13.596 26.656M611.548 41.3973c-15.572-11.0706-34.5693 13.4454-28.344 34.512 3.4253-12.9653 8.0773-23.2253 17.1027-23.824-3.556 8.3694 8.436 13.8227 13.7533 7.2147 5.624-6.992 4.188-13.1373-2.512-17.9027M556.4053 25.1627c-5.6-1.2174-6.08 1.5733-9.1213 2.36 6.3693 8.4493 12.5613 6.26 19.1093 25.3493-20.6906-3.884-6.2213-14.604-22.264-25.1933 2.508-.648 2.644-4.5627 7.5-4.6307-6.4026-5.28-11.3866-1.1707-14.8213 5.5027-2.224-3.0214-5.144-2.7254-7.716-4.0867.88 3.416-1.1613 6.2987 2.6413 10.2507-21.7213-3.0494-32.276 13.42-28.0666 22.272 2.724 5.7293 1.7706 8.2013-1.352 10.7893 7.068 4.5507 12.0293-2.792 12.412-11.424.2106-4.7627.4346-12.5533 11.408-13.608l-5.612 7.8387c5.8026 2.5 12.2506-5.916 23.5813-.6707 9.932 4.5973 14.6307 14.5533 22.1067 11.5173 3.9933 8.7347 5.3466 18.0654 8.0173 27.0974l4.464-4.1947c-1.4213-10.324-3.12-20.5707-5.796-30.54 7.644-12.8627-18.5027-43.5627-24.7907-52.0587-.416-.5613-.7746-1.1386-1.088-1.7266h-15.9226c9.8173 5.9813 18.5146 13.9133 25.3106 25.156"/>
    <path fill="#fdf6e3" d="M500.812 11.9973c-6.7333 4.9054-9.564 3.6427-13.8013 5.9387 2.4093 4.0227 6.0213 6.1827 11.3893 5.6173-9.1293 2.2334-8.7533 9.368-27.3947 6.6974 8.204 10.6186 20.3094 15.192 33.3334 1.5626l-3.16 8.5067c8.4493-2.808 8.5-10.5573 14.236-14.5827 5.0493-3.544 13.6093-4.5386 20.4706-1.528 2.4534-3.748 5.7427-5.8013 9.4174-7.0866C532.98 7.924 512.2 3.7 500.812 11.9973"/>
    <path fill="#fdf6e3" d="M435.6907 33.9333c-7.3934 11.2974-2.2534 27.1814 12.5373 26.8947 2.0227-.04 9.2747-.3213 14.6347-5.8747 4.7986-4.9733 5.2213-12.828-3.7507-16.1706 4.5253 11.38-8.5933 15.7866-14.5733 9.8013 5.6306 1.036 8.9266-.244 11.068-4.4347-6.888-.6746-11.2947-7.6346-9.4467-13.8226 1.968-6.5894 2.4667-13.8494 10.6453-18.0427-3.204 6.3347-2.3333 11.64 3.0494 14.1533-.3707-6.656 1.996-10.2693 7.4813-16.9133-2.0427 2.8827-1.3067 6.8867 1.4507 9.7707 6.2106-6.668 8.656-13.136 16.364-15.5627 13.74-4.3227 34.2146-.4347 51.4253 5.0653-3.7867-3.5893-7.824-6.4813-12.0733-8.7906h-61.88c-13.532 6.3946-25.272 17.82-26.932 33.9266"/>
    <path fill="#fdf6e3" d="M407.8213 53.216c-1.6453 9.9293 3.08 18.6093 9.34 14.3493-7.3973-.912-7.1186-16.26 3.4787-30.9906-.7147 4.664.1107 7.7973 2.4773 9.4 4.0547-8.7494 2.8307-15.0507 6.9614-22.0934 6.1893-10.5506 17.488-20.112 31.7226-23.8746H431.628c2.4 1.4333 5.2107 2.5973 8.4347 3.344-14.6747 13.4293-29.668 34.3266-32.2414 49.8653M385.576 45.8027c9.748.0306 19.0507-2.652 26.484-13.1547 2.84-4.012 3.612-10.8453 8.3213-14.9613-19.4146 2.8933-23.204 18.7453-34.8053 28.116M356.584 51.236c-5.4693 1.1453-7.0933 8.2013-1.6413 10.1707-4.052 3.6053-8.1147 2.152-11.1854-4.548-3.6906 13.9546 15.0467 18.3333 20.2174 4.548 1.732-4.616-2.4694-11.2014-7.3907-10.1707"/>
    <path fill="#fdf6e3" d="M358.3707 32.0413c-13.2947-2.6173-22.9614.5214-37.0454-1.1693 8.2694 2.6027 11.0107 6.8947 24.8094 7.8093-12.056 7.9667-25.296 8.6227-38.8707 7.2294 7.2333 5.1773 15.388 8.544 26.8293 5.4413-3.2026 8.2227-.4106 15.1347 6.0014 19.8693C333.0653 49.708 354.6 49.332 361.852 38.3867c9.0987-6.408 23.8667-7.9867 37.0413-10.9227-16.948-1.764-31.928-1.7307-40.5226 4.5773M405.1 6.6213c-3.392-1.6373-6.5267-3.7066-9.1573-6.6146H377.328c8.284 5.6173 18.2067 7.6986 27.772 6.6146M435.5773 4.86c-4.8613-.82-9.208-2.5787-12.9426-4.8533h-25.6014C411.2907 9.1413 428.756 12.9 435.5773 4.86"/>
    <path fill="#fdf6e3" d="M343.524 3.5693c8.6947.2974 10.176 13.6494 28.1867 12.8187-2.9534.684-4.0827 2.5653-6.124 3.848 7.1866-1.7613 7.8106 4.3267 16.152 4.9853 16.144 1.2734 28.1546-2.9213 40.1386-12.8373-19.7306-1.5333-36.8466-3.404-47.8306-12.1453-.096-.0747-.184-.156-.2774-.232h-26.5866c1.0706.5 2.2973.8973 3.732 1.148-3.2174-.1934-4.9267 1.6093-7.3907 2.4146"/>
  </g>
</svg>
