<?xml version="1.0" encoding="UTF-8"?>
<svg xmlns="http://www.w3.org/2000/svg" xmlns:xlink="http://www.w3.org/1999/xlink" width="300pt" height="228pt" viewBox="0 0 300 228" version="1.1">
<g id="surface1">
<path style=" stroke:none;fill-rule:evenodd;fill:#eee8d5;fill-opacity:1;" d="M 0 228.109375 L 300.191406 228.109375 L 300.191406 0.00390625 L 0 0.00390625 L 0 228.109375 "/>
<path style=" stroke:none;fill-rule:evenodd;fill:#fdf6e3;fill-opacity:1;" d="M 55.441406 224.304688 C 59.558594 221.113281 62.214844 221.691406 63.542969 222.332031 C 65.253906 223.15625 65.128906 224.71875 66.820312 225.203125 C 67.109375 223.464844 68.507812 222.921875 66.886719 219.726562 C 68.695312 220.671875 70.253906 219.105469 71.535156 218.664062 C 69.324219 217.800781 69.585938 215.726562 64.898438 216.070312 C 69 214.609375 73.910156 214.703125 76.832031 216.636719 C 79.492188 218.398438 84.476562 223.625 77.777344 226.71875 C 78.339844 227.488281 79.011719 227.96875 79.746094 228.109375 L 80.621094 228.109375 C 81.359375 227.980469 82.140625 227.523438 82.917969 226.675781 C 82.65625 227.191406 82.378906 227.660156 82.09375 228.109375 L 86.078125 228.109375 C 88.234375 221.34375 85.546875 213.511719 73.285156 211.8125 C 79.347656 205.265625 90.148438 206.617188 92.300781 217.648438 C 92.863281 216.992188 93.65625 216.960938 93.980469 215.675781 C 94.695312 222.898438 98.488281 223.207031 102.109375 224.3125 C 98.78125 219.601562 107.558594 217.550781 101.882812 213.390625 C 102.769531 214.148438 103.570312 213.808594 104.410156 214.015625 C 103.335938 211.28125 105.988281 207.46875 101.1875 205.8125 C 107.0625 206.339844 103.949219 212.828125 105.332031 216.332031 C 106.105469 215.6875 106.921875 216.097656 107.65625 214.398438 C 106.234375 221.820312 112.128906 225.417969 117.558594 224.550781 C 114.867188 218.789062 125.757812 214.65625 119.039062 206.226562 C 120.449219 207.402344 121.363281 206.960938 122.523438 207.328125 C 121.289062 204.515625 122.023438 199.890625 115.785156 198.855469 C 118.246094 198.597656 118.71875 196.476562 120.1875 195.285156 C 116.839844 195.722656 114.261719 191.453125 109.6875 192.628906 C 111.375 191.914062 110.816406 190.640625 111.378906 189.644531 C 107.664062 190.648438 105.785156 186.492188 99.78125 190.480469 C 100.804688 189.464844 100.1875 188.667969 100.390625 187.765625 C 94.382812 191.890625 91.070312 188.953125 82.367188 200.144531 C 77.925781 201.269531 74.550781 208.324219 69.96875 211.710938 C 61.066406 211.851562 50.960938 217.871094 46.921875 228.109375 L 51.792969 228.109375 C 52.757812 226.738281 53.960938 225.453125 55.441406 224.304688 Z M 109.679688 201.734375 C 100.144531 196.277344 92.464844 197.738281 85.546875 202.007812 C 89.691406 202.097656 92.144531 203.082031 93.824219 204.472656 C 88.742188 202.28125 84.132812 202.832031 79.738281 204.632812 C 85.90625 198.46875 98.9375 192.664062 109.679688 201.734375 "/>
<path style=" stroke:none;fill-rule:evenodd;fill:#fdf6e3;fill-opacity:1;" d="M 69.933594 226.488281 C 69.203125 226.941406 68.628906 227.492188 68.1875 228.109375 L 75.058594 228.109375 C 74.484375 226.335938 72.441406 224.9375 69.933594 226.488281 M 47.75 201.90625 C 43.714844 201.1875 40.945312 204.09375 41.304688 207.214844 C 41.769531 211.25 47.460938 212.789062 48.609375 208.585938 C 51.820312 211.492188 50.523438 216.730469 47.964844 222.617188 C 56.550781 216.546875 55.390625 203.269531 47.75 201.90625 M 64.3125 193.109375 C 60.242188 193.597656 58.667969 196.929688 59.6875 200.066406 C 61.039062 204.222656 67.445312 203.8125 67.363281 198.8125 C 71.960938 198.257812 73.242188 204.070312 68.816406 209.09375 C 78.679688 202.164062 72.019531 192.1875 64.3125 193.109375 M 119.0625 224.382812 C 120.195312 225.585938 120.386719 226.828125 120.167969 228.109375 L 123.527344 228.109375 C 122.976562 226.910156 121.664062 225.691406 119.0625 224.382812 M 130.105469 221.4375 C 133.703125 225.710938 137.492188 220.566406 136.785156 218.191406 C 136 215.550781 131.628906 213.597656 128.671875 216.617188 C 125.5 219.851562 124.65625 224.375 126.179688 228.109375 L 131.984375 228.109375 C 130.296875 226.628906 129.332031 224.238281 130.105469 221.4375 "/>
<path style=" stroke:none;fill-rule:evenodd;fill:#fdf6e3;fill-opacity:1;" d="M 148.691406 218.324219 C 152.902344 221.789062 156.179688 220.753906 158.480469 218.699219 C 155.113281 217.023438 149.875 216.671875 148.367188 211.628906 C 144.128906 197.410156 127.296875 194.171875 119.875 199.09375 C 124.910156 199.699219 128.066406 199.328125 130.808594 200.585938 C 138.089844 203.933594 138.582031 210.199219 134.570312 212.308594 C 136.007812 212.5625 138.804688 214.074219 140.191406 211.074219 C 140.105469 213.496094 142.242188 213.535156 143.265625 214.765625 C 141.902344 211.460938 144.515625 211.359375 144.042969 208.71875 C 147.390625 214.851562 145.792969 221.398438 142.757812 224.199219 C 140.8125 225.996094 138.492188 225.527344 135.777344 224.820312 C 136.492188 225.886719 136.1875 227.066406 137.148438 228.109375 L 145.984375 228.109375 C 147.957031 225.242188 149.066406 221.730469 148.691406 218.324219 M 167.203125 48.84375 C 160.160156 43.839844 151.625 44.957031 143.871094 46.011719 C 133.777344 47.386719 124.925781 50.003906 121.582031 52.671875 L 122.613281 54.0625 C 127.945312 52.609375 134.046875 52.136719 136.746094 53.644531 C 139.128906 54.972656 138.207031 58.167969 141.09375 58.929688 C 142.199219 56.671875 144.359375 54.382812 142.179688 50.65625 C 146.324219 50.515625 147.804688 56.113281 152.371094 54.074219 C 151.976562 52.941406 152.644531 52.160156 151.183594 50.675781 C 157.6875 54.761719 155.28125 56.785156 157.332031 59.835938 C 157.921875 58.011719 158.304688 59.035156 159.734375 55.417969 C 158.8125 58.035156 161.058594 60.332031 156.960938 63.269531 C 160.136719 63.964844 167.816406 62.578125 163.9375 55.125 C 165.007812 56.851562 165.792969 56.707031 166.722656 57.5 C 165.6875 54.917969 166.9375 53.511719 163.527344 49.964844 C 170.976562 55.246094 171.984375 60.335938 172.136719 65.386719 C 172.230469 68.546875 170.761719 71.03125 168.984375 71.484375 C 167.605469 71.835938 166.75 70.339844 164.242188 69.308594 C 164.679688 71.527344 162.761719 73.609375 168.164062 75.890625 C 166.386719 75.480469 165.972656 76.066406 164.878906 76.152344 C 165.894531 79.023438 169.308594 79.777344 171.800781 76.015625 C 169.914062 82.152344 161.171875 85.222656 156.859375 82.726562 C 155.320312 81.835938 155.75 79.078125 154.371094 77.40625 C 153.195312 77.332031 152.5 78.679688 151.832031 80.21875 C 149.46875 77.648438 150.628906 74.890625 152.527344 73.628906 C 153.523438 72.964844 154.585938 73.277344 155.726562 73.113281 C 155.808594 72.105469 155.441406 71.519531 154.738281 71.078125 C 156.050781 71.253906 157.160156 71.640625 157.449219 72.425781 C 157.867188 73.574219 157.140625 75.3125 157.730469 76.355469 C 161.207031 74.1875 161.957031 70.449219 159.21875 68.144531 C 154.625 64.273438 148.855469 66.308594 147.03125 72.339844 C 143.066406 85.445312 159.839844 91.089844 168.957031 83.550781 C 178.363281 75.773438 182.507812 59.71875 167.203125 48.84375 "/>
<path style=" stroke:none;fill-rule:evenodd;fill:#fdf6e3;fill-opacity:1;" d="M 142.652344 63.492188 C 135.203125 58.191406 126.113281 69.933594 129.089844 80.023438 C 130.730469 73.8125 132.957031 68.898438 137.273438 68.613281 C 135.574219 72.621094 141.3125 75.234375 143.855469 72.066406 C 146.546875 68.71875 145.859375 65.777344 142.652344 63.492188 M 129.308594 22.5 C 128.21875 23.582031 125.378906 27.175781 125.570312 30.171875 C 125.863281 34.699219 130.953125 38.457031 135.097656 33.800781 C 134.605469 32.714844 132.792969 32.675781 131.742188 31.878906 C 130.433594 30.886719 130.046875 29.050781 131.800781 26.476562 C 130.789062 28.949219 132.371094 29.375 132.894531 30.390625 C 135.09375 25.371094 139.976562 24.539062 143.832031 29.332031 C 141.003906 27.257812 139.925781 28.726562 137.972656 28.421875 C 138.5 30.539062 140.105469 30.960938 141.179688 33.066406 C 142.730469 36.105469 142.160156 41.304688 133.960938 46.625 C 141.464844 47.203125 153.617188 34.25 144.082031 22.644531 C 140.386719 18.15625 132.488281 19.34375 129.308594 22.5 M 112.296875 44.496094 C 108.9375 39.949219 112.78125 33.269531 116.984375 35.890625 C 117.910156 30.292969 106.960938 29.863281 107.5 39.039062 C 94.027344 22.636719 95.132812 8.847656 105.914062 7.628906 C 103.132812 2.464844 92.820312 6.660156 93.671875 13.617188 C 92.878906 11.949219 91.953125 12.039062 91.09375 11.25 C 89.007812 16.691406 90 22.734375 95.5 29.652344 C 92.144531 29.003906 90.828125 24.699219 86.210938 25.476562 L 88.011719 29.058594 C 84.890625 27.035156 83.59375 28.878906 80.707031 26.296875 C 78.660156 24.464844 80.039062 22.121094 77.175781 20.40625 C 74.339844 26.84375 77.628906 33.484375 87.164062 34.550781 C 84.695312 34.683594 84.558594 35.28125 83.257812 35.644531 C 86.378906 38.925781 89.652344 37.433594 92.753906 38.5 C 102.054688 41.6875 110.5625 46.261719 116.269531 55.71875 C 113.589844 55.132812 113.359375 56.46875 111.90625 56.847656 C 114.953125 60.894531 117.914062 59.847656 121.046875 68.988281 C 111.148438 67.128906 118.070312 61.996094 110.394531 56.921875 C 111.59375 56.613281 111.660156 54.738281 113.984375 54.703125 C 110.921875 52.175781 108.535156 54.144531 106.890625 57.339844 C 105.828125 55.890625 104.429688 56.035156 103.199219 55.382812 C 103.621094 57.019531 102.644531 58.398438 104.464844 60.292969 C 94.070312 58.832031 89.019531 66.71875 91.035156 70.960938 C 92.339844 73.703125 91.882812 74.886719 90.386719 76.128906 C 93.769531 78.308594 96.144531 74.789062 96.328125 70.65625 C 96.429688 68.375 96.535156 64.644531 101.785156 64.136719 L 99.101562 67.890625 C 101.875 69.089844 104.960938 65.058594 110.382812 67.570312 C 115.136719 69.773438 117.382812 74.542969 120.960938 73.089844 C 122.871094 77.273438 123.519531 81.742188 124.796875 86.066406 L 126.933594 84.058594 C 126.253906 79.113281 125.441406 74.207031 124.160156 69.429688 C 127.816406 63.269531 115.308594 48.5625 112.296875 44.496094 "/>
<path style=" stroke:none;fill-rule:evenodd;fill:#fdf6e3;fill-opacity:1;" d="M 89.667969 49.410156 C 86.449219 51.761719 85.09375 51.15625 83.066406 52.253906 C 84.21875 54.183594 85.945312 55.214844 88.515625 54.945312 C 84.148438 56.015625 84.328125 59.433594 75.40625 58.152344 C 79.332031 63.242188 85.125 65.429688 91.359375 58.902344 L 89.84375 62.976562 C 93.886719 61.632812 93.910156 57.921875 96.65625 55.992188 C 99.074219 54.292969 103.167969 53.816406 106.453125 55.257812 C 107.625 53.464844 109.199219 52.480469 110.957031 51.867188 C 105.058594 47.460938 95.117188 45.4375 89.667969 49.410156 "/>
<path style=" stroke:none;fill-rule:evenodd;fill:#fdf6e3;fill-opacity:1;" d="M 71.714844 41.210938 C 62.160156 43.980469 56.09375 41.230469 52.414062 34.707031 C 50.902344 38.707031 54.039062 43.746094 60.605469 45.269531 C 53.582031 51.703125 46.40625 61.710938 45.175781 69.152344 C 44.390625 73.910156 46.652344 78.066406 49.644531 76.027344 C 46.105469 75.589844 46.238281 68.238281 51.308594 61.183594 C 50.96875 63.417969 51.363281 64.917969 52.496094 65.6875 C 54.433594 61.496094 53.847656 58.476562 55.824219 55.101562 C 58.910156 49.839844 64.636719 45.085938 71.847656 43.449219 C 65.183594 46.46875 59.324219 52.023438 58.511719 59.917969 C 54.972656 65.328125 57.433594 72.9375 64.507812 72.800781 C 65.476562 72.78125 68.949219 72.644531 71.511719 69.988281 C 73.808594 67.605469 74.011719 63.84375 69.71875 62.242188 C 71.882812 67.691406 65.605469 69.800781 62.746094 66.9375 C 65.4375 67.429688 67.015625 66.820312 68.039062 64.8125 C 64.742188 64.488281 62.636719 61.15625 63.519531 58.191406 C 64.460938 55.035156 64.699219 51.558594 68.613281 49.546875 C 67.082031 52.582031 67.496094 55.125 70.074219 56.328125 C 69.894531 53.140625 71.027344 51.410156 73.652344 48.226562 C 72.675781 49.605469 73.027344 51.523438 74.347656 52.90625 C 77.316406 49.714844 78.488281 46.613281 82.175781 45.453125 C 88.75 43.382812 98.546875 45.242188 106.78125 47.878906 C 97.476562 39.050781 85.035156 38.914062 71.714844 41.210938 "/>
<path style=" stroke:none;fill-rule:evenodd;fill:#fdf6e3;fill-opacity:1;" d="M 34.53125 65.605469 C 39.195312 65.617188 43.648438 64.332031 47.203125 59.300781 C 48.5625 57.378906 48.933594 54.109375 51.1875 52.136719 C 41.898438 53.523438 40.082031 61.113281 34.53125 65.605469 M 11.949219 69.648438 C 8.539062 69.980469 7.070312 74.179688 10.265625 75.75 C 7.550781 77.675781 5.167969 76.515625 3.746094 72.21875 C 0.554688 80.488281 11.6875 84.429688 15.773438 76.359375 C 17.140625 73.65625 15.023438 69.355469 11.949219 69.648438 "/>
<path style=" stroke:none;fill-rule:evenodd;fill:#fdf6e3;fill-opacity:1;" d="M 16.03125 62.160156 C 22.011719 58.859375 31.125 58.894531 39.359375 57.992188 C 29.140625 55.769531 20.003906 54.78125 14.335938 58.050781 C 9.167969 56.425781 4.777344 56.390625 0 56.019531 L 0 59.417969 C 1.625 60.136719 3.632812 60.78125 6.421875 61.277344 C 4.296875 62.371094 2.15625 63.121094 0 63.617188 L 0 80.203125 C 0.175781 80.386719 0.355469 80.566406 0.542969 80.738281 C -2.292969 67.128906 10.867188 68.351562 16.03125 62.160156 M 45.421875 34.195312 C 45.328125 29.585938 46.863281 23.597656 39.75 22.199219 C 41.09375 25.21875 35.46875 26.636719 36.617188 31.277344 C 35.433594 29.472656 34.4375 30.042969 33.347656 29.425781 C 32.445312 31.382812 33.6875 33.121094 32.496094 34.320312 C 31.207031 29.242188 34.570312 27.289062 35.605469 23.773438 C 34.511719 23.890625 33.929688 22.910156 32.328125 24.128906 C 36.308594 17.121094 32.914062 9.085938 27.765625 7.804688 C 28.863281 13.707031 14.582031 14.496094 16.292969 25.179688 C 15.34375 23.660156 14.222656 24.546875 13.1875 24.230469 C 14.800781 25.835938 11.25 30.101562 15.40625 34.214844 C 11.714844 33.734375 10.078125 34.691406 9.371094 36.304688 C 13.6875 35.332031 11.210938 43.039062 17.949219 44.21875 C 16.410156 44.125 15.589844 44.988281 14.414062 45.375 C 18.574219 45.515625 19.28125 51.910156 27.898438 51.515625 C 26.484375 51.839844 25.945312 52.742188 24.96875 53.355469 C 28.40625 52.511719 28.707031 55.429688 32.695312 55.746094 C 40.421875 56.355469 46.167969 54.347656 51.902344 49.597656 C 42.460938 48.859375 34.273438 47.964844 29.015625 43.777344 C 24.929688 40.523438 22.449219 35.957031 21.972656 30.195312 C 24.808594 42.8125 34.6875 47.878906 43.875 46.835938 C 41.957031 45.910156 40.207031 44.699219 38.828125 42.871094 C 45.835938 47.8125 55 50.070312 58.457031 45.992188 C 50.625 44.667969 45.503906 38.324219 45.421875 34.195312 M 80.621094 0.00390625 L 79.75 0.00390625 C 80.03125 0.0546875 80.324219 0.0546875 80.621094 0.00390625 M 84.132812 38.007812 C 83.039062 37.464844 82.140625 36.6875 81.382812 35.746094 C 69.003906 34.300781 66.273438 29.214844 67.925781 22.480469 C 65.8125 24.195312 62.683594 24.707031 63.550781 29.816406 C 55.441406 23.351562 61.679688 19.421875 60.746094 14.226562 C 59.507812 14.816406 55.726562 15.191406 56.195312 19.371094 C 55.027344 16.609375 54.675781 13.359375 57.015625 11.292969 C 58.519531 9.964844 61.480469 9.878906 64.984375 8.644531 C 61.265625 4.5 54.679688 6.019531 53.152344 11.152344 C 53.355469 9.453125 52.210938 9.328125 51.742188 8.417969 C 51.089844 11.777344 49.527344 12.316406 49.789062 18.503906 C 47.9375 13.324219 47.671875 5.867188 51.792969 0.00390625 L 46.921875 0.00390625 C 45.804688 2.828125 45.152344 5.972656 45.117188 9.40625 C 44.949219 24.875 63.046875 40.316406 84.132812 38.007812 "/>
<path style=" stroke:none;fill-rule:evenodd;fill:#fdf6e3;fill-opacity:1;" d="M 71.769531 3.875 C 74.8125 3.753906 75.613281 1.707031 75.058594 0.00390625 L 68.1875 0.00390625 C 64.992188 4.472656 69.097656 12.378906 76.574219 10.019531 C 80.980469 8.628906 84.625 4.558594 86.078125 0.00390625 L 82.09375 0.00390625 C 79.515625 4.054688 76.078125 5.351562 71.769531 3.875 M 121.773438 12.980469 C 119.265625 7.390625 125.273438 3.800781 123.527344 0.00390625 L 120.167969 0.00390625 C 119.480469 3.988281 114.761719 8.332031 121.773438 12.980469 M 130.28125 4.769531 C 136 8.253906 142.414062 5.179688 145.984375 0.00390625 L 137.148438 0.00390625 C 137.472656 0.355469 137.9375 0.691406 138.640625 1.003906 C 136.421875 2.128906 133.789062 1.589844 131.984375 0.00390625 L 126.179688 0.00390625 C 126.945312 1.878906 128.300781 3.5625 130.28125 4.769531 M 5.46875 197.605469 C 14.589844 205.144531 31.363281 199.496094 27.398438 186.390625 C 25.574219 180.363281 19.804688 178.328125 15.210938 182.195312 C 12.472656 184.5 13.222656 188.242188 16.699219 190.410156 C 17.289062 189.363281 16.5625 187.625 16.980469 186.480469 C 17.269531 185.695312 18.375 185.308594 19.691406 185.132812 C 18.988281 185.574219 18.621094 186.15625 18.703125 187.167969 C 19.84375 187.328125 20.90625 187.019531 21.902344 187.679688 C 23.800781 188.945312 24.960938 191.699219 22.597656 194.269531 C 21.925781 192.730469 21.234375 191.382812 20.058594 191.460938 C 18.679688 193.132812 19.109375 195.886719 17.566406 196.78125 C 13.257812 199.273438 4.515625 196.203125 2.625 190.066406 C 5.121094 193.828125 8.535156 193.074219 9.550781 190.207031 C 8.453125 190.117188 8.042969 189.535156 6.265625 189.941406 C 11.667969 187.664062 9.75 185.578125 10.1875 183.359375 C 7.679688 184.394531 6.824219 185.886719 5.441406 185.535156 C 3.667969 185.085938 2.195312 182.601562 2.292969 179.4375 C 2.441406 174.390625 3.449219 169.300781 10.902344 164.015625 C 7.492188 167.566406 8.738281 168.96875 7.707031 171.554688 C 8.636719 170.761719 9.421875 170.902344 10.492188 169.175781 C 6.613281 176.632812 14.289062 178.019531 17.464844 177.320312 C 13.367188 174.386719 15.617188 172.085938 14.691406 169.46875 C 16.125 173.089844 16.507812 172.066406 17.097656 173.890625 C 19.144531 170.835938 16.742188 168.8125 23.246094 164.726562 C 21.785156 166.214844 22.453125 166.992188 22.054688 168.125 C 26.625 170.167969 28.101562 164.570312 32.25 164.710938 C 30.070312 168.4375 32.226562 170.722656 33.332031 172.980469 C 36.222656 172.21875 35.296875 169.027344 37.679688 167.695312 C 40.378906 166.191406 46.484375 166.660156 51.816406 168.113281 L 52.84375 166.726562 C 49.503906 164.054688 40.652344 161.4375 30.558594 160.066406 C 22.804688 159.011719 14.265625 157.894531 7.226562 162.894531 C 3.988281 165.195312 1.632812 167.730469 0 170.367188 L 0 191.09375 C 1.433594 193.589844 3.308594 195.816406 5.46875 197.605469 "/>
<path style=" stroke:none;fill-rule:evenodd;fill:#fdf6e3;fill-opacity:1;" d="M 31.777344 177.546875 C 28.570312 179.828125 27.882812 182.773438 30.574219 186.121094 C 33.117188 189.285156 38.855469 186.675781 37.152344 182.664062 C 41.472656 182.953125 43.699219 187.867188 45.335938 194.078125 C 48.316406 183.988281 39.226562 172.242188 31.777344 177.546875 M 30.347656 136.699219 C 20.8125 148.300781 32.964844 161.257812 40.46875 160.679688 C 32.269531 155.359375 31.695312 150.15625 33.25 147.117188 C 34.324219 145.015625 35.929688 144.59375 36.453125 142.472656 C 34.503906 142.777344 33.425781 141.3125 30.597656 143.386719 C 34.449219 138.59375 39.332031 139.421875 41.535156 144.441406 C 42.058594 143.429688 43.640625 143.003906 42.625 140.53125 C 44.382812 143.105469 43.992188 144.9375 42.6875 145.933594 C 41.636719 146.730469 39.820312 146.765625 39.332031 147.851562 C 43.476562 152.507812 48.566406 148.75 48.859375 144.226562 C 49.050781 141.226562 46.207031 137.632812 45.121094 136.554688 C 41.9375 133.398438 34.039062 132.207031 30.347656 136.699219 M 93.71875 140.351562 C 90.835938 142.933594 89.539062 141.085938 86.414062 143.109375 L 88.214844 139.53125 C 83.601562 138.753906 82.285156 143.058594 78.929688 143.707031 C 84.429688 136.785156 85.421875 130.742188 83.335938 125.300781 C 82.476562 126.089844 81.550781 126 80.757812 127.667969 C 81.609375 120.710938 71.296875 116.515625 68.515625 121.679688 C 79.296875 122.902344 80.402344 136.691406 66.929688 153.09375 C 67.46875 143.917969 56.519531 144.34375 57.445312 149.945312 C 61.648438 147.320312 65.492188 154.003906 62.132812 158.546875 C 59.121094 162.617188 46.613281 177.320312 50.269531 183.484375 C 48.988281 188.257812 48.175781 193.164062 47.496094 198.109375 L 49.632812 200.121094 C 50.910156 195.792969 51.558594 191.324219 53.46875 187.140625 C 57.046875 188.59375 59.292969 183.828125 64.046875 181.625 C 69.46875 179.113281 72.550781 183.144531 75.328125 181.945312 L 72.644531 178.191406 C 77.894531 178.695312 78 182.425781 78.101562 184.707031 C 78.285156 188.84375 80.660156 192.359375 84.039062 190.179688 C 82.546875 188.941406 82.089844 187.757812 83.394531 185.011719 C 85.40625 180.773438 80.355469 172.882812 69.964844 174.34375 C 71.785156 172.453125 70.808594 171.070312 71.230469 169.433594 C 69.996094 170.085938 68.601562 169.945312 67.535156 171.390625 C 65.894531 168.195312 63.507812 166.226562 60.445312 168.757812 C 62.769531 168.789062 62.832031 170.664062 64.03125 170.972656 C 56.359375 176.046875 63.28125 181.183594 53.382812 183.042969 C 56.511719 173.898438 59.476562 174.949219 62.523438 170.898438 C 61.070312 170.523438 60.839844 169.1875 58.160156 169.769531 C 63.867188 160.316406 72.375 155.738281 81.675781 152.550781 C 84.777344 151.488281 88.050781 152.976562 91.171875 149.695312 C 89.867188 149.332031 89.734375 148.738281 87.265625 148.601562 C 96.800781 147.535156 100.089844 140.898438 97.253906 134.457031 C 94.390625 136.175781 95.769531 138.519531 93.71875 140.351562 "/>
<path style=" stroke:none;fill-rule:evenodd;fill:#fdf6e3;fill-opacity:1;" d="M 85.914062 169 C 88.480469 169.269531 90.210938 168.234375 91.363281 166.308594 C 89.335938 165.207031 87.980469 165.8125 84.757812 163.464844 C 79.308594 159.488281 69.367188 161.511719 63.472656 165.917969 C 65.230469 166.535156 66.804688 167.519531 67.976562 169.3125 C 71.261719 167.871094 75.355469 168.347656 77.773438 170.046875 C 80.515625 171.972656 80.539062 175.683594 84.582031 177.03125 L 83.070312 172.957031 C 89.304688 179.484375 95.09375 177.292969 99.019531 172.207031 C 90.101562 173.488281 90.28125 170.066406 85.914062 169 "/>
<path style=" stroke:none;fill-rule:evenodd;fill:#fdf6e3;fill-opacity:1;" d="M 113.824219 159.320312 C 120.390625 157.800781 123.527344 152.761719 122.015625 148.757812 C 118.332031 155.285156 112.265625 158.03125 102.714844 155.261719 C 89.394531 152.964844 76.949219 153.101562 67.648438 161.929688 C 75.882812 159.296875 85.679688 157.433594 92.253906 159.503906 C 95.941406 160.667969 97.113281 163.765625 100.082031 166.957031 C 101.402344 165.578125 101.753906 163.660156 100.777344 162.277344 C 103.402344 165.460938 104.535156 167.191406 104.355469 170.378906 C 106.929688 169.175781 107.347656 166.632812 105.816406 163.601562 C 109.726562 165.609375 109.96875 169.085938 110.910156 172.242188 C 111.792969 175.207031 109.683594 178.542969 106.390625 178.863281 C 107.414062 180.871094 108.992188 181.484375 111.683594 180.988281 C 108.824219 183.855469 102.546875 181.746094 104.710938 176.292969 C 100.417969 177.894531 100.621094 181.65625 102.917969 184.039062 C 105.480469 186.699219 108.953125 186.835938 109.917969 186.851562 C 116.996094 186.992188 119.457031 179.382812 115.917969 173.972656 C 115.105469 166.078125 109.246094 160.523438 102.582031 157.503906 C 109.789062 159.136719 115.519531 163.894531 118.601562 169.15625 C 120.578125 172.527344 119.996094 175.546875 121.933594 179.738281 C 123.066406 178.972656 123.460938 177.46875 123.117188 175.234375 C 128.191406 182.292969 128.324219 189.644531 124.78125 190.082031 C 127.777344 192.121094 130.039062 187.960938 129.253906 183.207031 C 128.019531 175.765625 120.847656 165.753906 113.824219 159.320312 "/>
<path style=" stroke:none;fill-rule:evenodd;fill:#fdf6e3;fill-opacity:1;" d="M 123.242188 166.1875 C 125.496094 168.160156 125.867188 171.433594 127.222656 173.355469 C 130.78125 178.386719 135.230469 179.671875 139.894531 179.65625 C 134.34375 175.167969 132.53125 167.574219 123.242188 166.1875 M 163.441406 160.367188 C 161.148438 162.621094 161.816406 167.667969 165.007812 168.417969 C 168.550781 169.246094 171.453125 165.523438 168.773438 162.855469 C 172.160156 161.84375 174.15625 163.820312 174.125 168.628906 C 180.144531 161.394531 170.289062 153.644531 163.441406 160.367188 "/>
<path style=" stroke:none;fill-rule:evenodd;fill:#fdf6e3;fill-opacity:1;" d="M 192.65625 185.148438 C 189.8125 180.097656 185.925781 175.863281 178.316406 174.542969 C 182.46875 170.566406 182.722656 165.710938 180.242188 161.148438 C 178.46875 175.800781 165.652344 170.089844 158.359375 174.558594 C 151.226562 175.839844 142.074219 172.703125 133.488281 170.808594 C 143.007812 176.523438 151.859375 180.628906 158.667969 179.269531 C 165.796875 184.476562 172.367188 185.285156 180.21875 190.164062 C 176.050781 186.347656 175.613281 183.054688 167.71875 178.714844 C 177.03125 177.328125 185.027344 180.589844 192.65625 185.148438 "/>
<path style=" stroke:none;fill-rule:evenodd;fill:#fdf6e3;fill-opacity:1;" d="M 159.023438 148.269531 C 163.179688 144.15625 159.628906 139.886719 161.242188 138.285156 C 160.207031 138.601562 159.082031 137.714844 158.136719 139.230469 C 159.84375 128.550781 145.5625 127.761719 146.664062 121.855469 C 141.515625 123.136719 138.121094 131.171875 142.101562 138.179688 C 140.5 136.964844 139.914062 137.945312 138.824219 137.828125 C 139.859375 141.339844 143.222656 143.296875 141.929688 148.371094 C 140.742188 147.175781 141.980469 145.433594 141.082031 143.476562 C 139.992188 144.09375 138.996094 143.527344 137.808594 145.332031 C 138.960938 140.6875 133.332031 139.273438 134.675781 136.253906 C 127.566406 137.652344 129.101562 143.640625 129.007812 148.25 C 128.925781 152.378906 123.804688 158.722656 115.972656 160.046875 C 119.429688 164.121094 128.59375 161.867188 135.601562 156.925781 C 134.222656 158.753906 132.472656 159.960938 130.554688 160.886719 C 139.742188 161.929688 149.621094 156.867188 152.453125 144.25 C 151.980469 150.007812 149.5 154.574219 145.414062 157.832031 C 140.15625 162.019531 131.96875 162.914062 122.527344 163.648438 C 128.261719 168.398438 134.007812 170.40625 141.730469 169.796875 C 145.722656 169.480469 146.023438 166.566406 149.460938 167.410156 C 148.484375 166.796875 147.941406 165.894531 146.53125 165.566406 C 155.148438 165.964844 155.855469 159.570312 160.015625 159.425781 C 158.835938 159.042969 158.019531 158.175781 156.480469 158.269531 C 163.21875 157.09375 160.742188 149.386719 165.054688 150.359375 C 164.351562 148.746094 162.710938 147.789062 159.023438 148.269531 M 104.460938 97.65625 C 99.875 94.273438 96.503906 87.214844 92.0625 86.09375 C 83.359375 74.902344 80.046875 77.839844 74.039062 73.710938 C 74.242188 74.617188 73.625 75.410156 74.648438 76.425781 C 68.644531 72.4375 66.765625 76.59375 63.050781 75.59375 C 63.613281 76.585938 63.054688 77.859375 64.742188 78.578125 C 60.167969 77.398438 57.589844 81.667969 54.242188 81.234375 C 55.707031 82.421875 56.183594 84.542969 58.640625 84.800781 C 52.40625 85.835938 53.140625 90.460938 51.90625 93.273438 C 53.066406 92.910156 53.980469 93.347656 55.390625 92.175781 C 48.671875 100.601562 59.5625 104.738281 56.867188 110.5 C 62.300781 111.367188 68.195312 107.765625 66.769531 100.347656 C 67.507812 102.046875 68.320312 101.636719 69.097656 102.28125 C 70.476562 98.773438 67.367188 92.289062 73.242188 91.761719 C 68.441406 93.417969 71.089844 97.230469 70.015625 99.964844 C 70.859375 99.753906 71.660156 100.09375 72.546875 99.335938 C 66.871094 103.496094 75.648438 105.546875 72.316406 110.261719 C 75.941406 109.15625 79.734375 108.847656 80.445312 101.625 C 80.773438 102.90625 81.566406 102.9375 82.125 103.597656 C 84.28125 92.5625 95.082031 91.210938 101.144531 97.761719 C 80.628906 100.601562 86.90625 120.613281 97.851562 124.070312 C 106.363281 126.757812 110.507812 116.152344 104.496094 112.4375 C 99.578125 109.398438 96.441406 117.679688 102.660156 117.925781 C 97.875 119.566406 94.160156 117.796875 91.507812 112.621094 C 93.425781 114.707031 95.34375 114.460938 96.648438 112.664062 C 89.953125 109.570312 94.933594 104.347656 97.597656 102.585938 C 100.519531 100.652344 105.429688 100.558594 109.53125 102.015625 C 104.84375 101.671875 105.105469 103.746094 102.894531 104.613281 C 104.175781 105.050781 105.734375 106.617188 107.539062 105.675781 C 105.921875 108.871094 107.320312 109.410156 107.609375 111.148438 C 109.300781 110.667969 109.171875 109.105469 110.886719 108.28125 C 112.214844 107.636719 114.867188 107.058594 118.984375 110.25 C 126.796875 116.308594 126.921875 126.164062 124.636719 132.554688 C 124.902344 126.371094 123.335938 125.832031 122.6875 122.46875 C 122.21875 123.382812 121.074219 123.503906 121.273438 125.207031 C 119.75 120.070312 113.164062 118.554688 109.441406 122.699219 C 112.949219 123.933594 115.910156 124.019531 117.410156 125.34375 C 119.753906 127.414062 119.398438 130.664062 118.230469 133.421875 C 118.703125 129.246094 114.921875 128.867188 113.683594 128.277344 C 112.746094 133.472656 118.984375 137.40625 110.878906 143.867188 C 111.746094 138.757812 108.617188 138.246094 106.503906 136.53125 C 108.15625 143.269531 105.425781 148.351562 93.046875 149.800781 C 92.285156 150.738281 91.390625 151.519531 90.292969 152.0625 C 111.382812 154.367188 129.476562 138.929688 129.3125 123.457031 C 129.144531 107.589844 115.816406 97.839844 104.460938 97.65625 Z M 80.605469 90.417969 C 82.285156 89.027344 84.734375 88.042969 88.882812 87.953125 C 81.960938 83.683594 74.285156 82.226562 64.75 87.679688 C 75.492188 78.613281 88.523438 84.414062 94.691406 90.578125 C 90.296875 88.777344 85.6875 88.226562 80.605469 90.417969 "/>
<path style=" stroke:none;fill-rule:evenodd;fill:#fdf6e3;fill-opacity:1;" d="M 126.679688 87.851562 C 119.035156 89.21875 117.878906 102.496094 126.464844 108.566406 C 123.90625 102.675781 122.609375 97.4375 125.820312 94.53125 C 126.964844 98.734375 132.660156 97.199219 133.125 93.160156 C 133.480469 90.039062 130.710938 87.132812 126.679688 87.851562 M 110.117188 79.054688 C 102.410156 78.132812 95.75 88.113281 105.613281 95.039062 C 101.1875 90.019531 102.46875 84.203125 107.066406 84.761719 C 106.984375 89.761719 113.390625 90.167969 114.738281 86.011719 C 115.757812 82.875 114.1875 79.542969 110.117188 79.054688 M 55.367188 110.332031 C 44.507812 115.792969 55.953125 119.679688 52.65625 127.035156 C 61.917969 120.894531 50.703125 115.277344 55.367188 110.332031 M 43.621094 86.535156 C 46.363281 85.273438 49.515625 85.648438 54.550781 85.039062 C 47.132812 80.117188 30.300781 83.359375 26.0625 97.574219 C 24.554688 102.621094 19.316406 102.972656 15.949219 104.644531 C 18.25 106.703125 21.523438 107.734375 25.738281 104.273438 C 24.6875 113.832031 35.265625 124.234375 44.144531 118.820312 C 50.066406 115.214844 50.523438 107.425781 45.757812 102.5625 C 42.800781 99.546875 38.429688 101.496094 37.644531 104.140625 C 36.9375 106.515625 40.726562 111.65625 44.324219 107.386719 C 45.925781 113.1875 40.074219 117.234375 35.789062 115.054688 C 38.5625 113.824219 37.695312 112.195312 38.648438 110.765625 C 35.9375 111.472656 33.617188 111.945312 31.671875 110.148438 C 28.632812 107.34375 27.039062 100.796875 30.386719 94.664062 C 29.910156 97.304688 32.527344 97.410156 31.160156 100.714844 C 32.1875 99.484375 34.324219 99.441406 34.238281 97.019531 C 35.625 100.019531 38.421875 98.511719 39.855469 98.257812 C 35.84375 96.148438 36.335938 89.878906 43.621094 86.535156 M 282.417969 63.070312 C 286.480469 66.71875 291.226562 69.324219 298.414062 68.203125 C 296.042969 72.753906 297.027344 76.949219 300.191406 80.203125 L 300.191406 63.617188 C 294.34375 64.960938 288.398438 64.359375 282.417969 63.070312 M 300.191406 59.417969 L 300.191406 56.019531 C 297.632812 55.820312 294.96875 55.527344 292.007812 54.835938 C 295.253906 56.265625 296.953125 57.988281 300.191406 59.417969 M 300.191406 191.09375 L 300.191406 170.367188 C 295.882812 177.332031 296.707031 185.019531 300.191406 191.09375 M 9.667969 141.289062 C 8.195312 144.496094 6.253906 145.191406 4.3125 143.464844 C 6.921875 142.523438 6.144531 139.144531 3.527344 138.59375 C 1.9375 138.261719 0.507812 139.59375 0 141.179688 L 0 143.484375 C 2.484375 150.066406 11.429688 147.964844 9.667969 141.289062 "/>
<path style=" stroke:none;fill-rule:evenodd;fill:#fdf6e3;fill-opacity:1;" d="M 11.417969 148.167969 C 14.488281 145.898438 15.820312 142.589844 14.289062 138.648438 C 19.765625 140.136719 23.664062 138.523438 27.128906 136.042969 C 20.632812 136.710938 14.296875 136.398438 8.527344 132.582031 C 15.128906 132.144531 16.441406 130.085938 20.398438 128.839844 C 13.660156 129.648438 9.035156 128.144531 2.675781 129.402344 C 1.890625 128.824219 0.992188 128.359375 0 127.984375 L 0 131.800781 C 0.347656 132.003906 0.6875 132.214844 1.007812 132.441406 C 4.476562 137.683594 14.78125 137.863281 11.417969 148.167969 M 6.242188 114.605469 C 12.980469 113.429688 10.5 105.722656 14.816406 106.695312 C 14.113281 105.082031 12.472656 104.125 8.785156 104.601562 C 12.9375 100.492188 9.390625 96.222656 11.003906 94.621094 C 9.96875 94.9375 8.84375 94.050781 7.898438 95.566406 C 8.96875 88.878906 3.765625 86.066406 0 83.453125 L 0 106.753906 C 0.941406 104.945312 1.699219 102.890625 2.214844 100.585938 C 1.976562 103.503906 1.21875 106.113281 0 108.402344 L 0 121.589844 C 5.238281 120.332031 6.3125 115.878906 9.777344 115.761719 C 8.597656 115.378906 7.78125 114.511719 6.242188 114.605469 M 1.804688 209.394531 C 1.183594 209.476562 0.585938 209.601562 0 209.742188 L 0 222.199219 C 0.558594 222.578125 1.171875 222.921875 2.035156 223.125 C 1.28125 221.511719 2.1875 221.960938 0.875 218.59375 C 1.902344 220.960938 4.882812 221.097656 3.953125 225.691406 C 6.550781 224.15625 10.898438 218.351562 3.546875 215.738281 C 5.367188 216.230469 5.8125 215.640625 6.945312 215.589844 C 4.609375 214.484375 4.574219 212.738281 0.0117188 212.484375 C 8.417969 211.359375 12.320312 214.1875 15.613281 217.523438 C 17.675781 219.617188 18.242188 222.238281 17.320312 223.671875 C 16.601562 224.78125 15.074219 224.308594 12.714844 225.195312 C 14.414062 226.425781 14.429688 229.058594 19.546875 227.1875 C 18.972656 227.519531 18.640625 227.820312 18.402344 228.109375 L 21.832031 228.109375 C 22.183594 227.316406 22.3125 226.265625 22.097656 224.96875 C 22.574219 225.957031 22.828125 227.023438 22.894531 228.109375 L 25.085938 228.109375 C 24.664062 217.851562 17.175781 207.359375 1.804688 209.394531 M 8.5625 227.582031 C 7.632812 227.625 6.789062 227.816406 6.03125 228.109375 L 10.914062 228.109375 C 10.257812 227.734375 9.46875 227.535156 8.5625 227.582031 M 21.832031 0.00390625 L 18.402344 0.00390625 C 18.027344 0.457031 17.898438 0.882812 17.476562 1.34375 C 19.195312 2.242188 21.054688 1.746094 21.832031 0.00390625 "/>
<path style=" stroke:none;fill-rule:evenodd;fill:#fdf6e3;fill-opacity:1;" d="M 2.921875 10.042969 C 8.5 21.472656 23.480469 14.699219 24.921875 3.792969 C 25.089844 2.550781 25.136719 1.277344 25.085938 0.00390625 L 22.894531 0.00390625 C 23.195312 4.820312 19.851562 10.050781 16.171875 10.890625 C 14.558594 11.261719 13.109375 9.113281 11.117188 8.847656 C 10.269531 9.542969 10.648438 10.894531 11.164062 12.371094 C 7.933594 12.117188 6.980469 9.503906 7.476562 7.441406 C 7.734375 6.363281 8.652344 5.902344 9.328125 5.066406 C 8.746094 4.328125 8.125 4.167969 7.371094 4.308594 C 8.375 3.597656 9.371094 3.15625 10.0625 3.511719 C 11.074219 4.023438 11.675781 5.671875 12.738281 6.003906 C 13.464844 3.328125 12.675781 1.007812 10.914062 0.00390625 L 6.03125 0.00390625 C 2.265625 1.453125 0.785156 5.667969 2.921875 10.042969 M 174.15625 92.035156 C 155.894531 87.703125 146.578125 101.417969 146.953125 113.625 C 147.316406 125.460938 162.628906 134.34375 169.84375 122.710938 C 173.164062 117.359375 170.882812 111.679688 164.945312 110.777344 C 161.40625 110.242188 159.097656 113.273438 159.765625 117.316406 C 160.941406 117.074219 161.765625 115.378906 162.902344 114.9375 C 163.679688 114.636719 164.703125 115.210938 165.699219 116.082031 C 164.90625 115.847656 164.226562 115.957031 163.519531 116.683594 C 164.152344 117.652344 165.085938 118.242188 165.246094 119.429688 C 165.554688 121.691406 164.253906 124.382812 160.761719 124.304688 C 161.476562 122.78125 162.027344 121.375 161.195312 120.539062 C 159.03125 120.605469 157.246094 122.746094 155.558594 122.175781 C 150.84375 120.582031 147.375 111.984375 150.734375 106.511719 C 149.554688 110.871094 152.375 112.9375 155.199219 111.808594 C 154.542969 110.925781 154.707031 110.230469 153.226562 109.164062 C 158.503906 111.722656 158.804688 108.90625 160.753906 107.769531 C 158.324219 106.5625 156.636719 106.90625 155.992188 105.636719 C 155.15625 104.003906 156.050781 101.257812 158.488281 99.242188 C 162.375 96.023438 166.859375 93.421875 175.742188 95.539062 C 170.828125 95.316406 170.597656 97.179688 167.976562 98.109375 C 169.183594 98.285156 169.597656 98.96875 171.601562 98.636719 C 163.441406 100.640625 167.472656 107.328125 170.089844 109.257812 C 169.589844 104.238281 172.800781 104.410156 174.152344 101.988281 C 172.382812 105.453125 173.402344 105.066406 172.421875 106.714844 C 176.066406 106.238281 175.996094 103.09375 183.359375 105.289062 C 181.277344 105.171875 181.132812 106.1875 180.023438 106.636719 C 181.507812 111.417969 186.679688 108.835938 189.3125 112.046875 C 185.078125 112.867188 184.789062 116 183.824219 118.320312 C 186.300781 119.992188 188.089844 117.1875 190.660156 118.101562 C 193.570312 119.136719 197.246094 124.039062 199.679688 129.007812 L 201.398438 128.863281 C 201.195312 124.589844 197.316406 116.207031 191.683594 107.710938 C 187.355469 101.183594 182.558594 94.023438 174.15625 92.035156 M 181.730469 133.882812 C 178.523438 136.164062 177.835938 139.109375 180.527344 142.457031 C 183.070312 145.621094 188.808594 143.011719 187.109375 139 C 191.425781 139.289062 193.652344 144.203125 195.292969 150.414062 C 198.269531 140.320312 189.179688 128.578125 181.730469 133.882812 M 195.214844 85.097656 C 183.886719 89.460938 187.285156 103.425781 192.796875 106.011719 C 189.144531 98.996094 190.808594 95.105469 193.113281 93.585938 C 194.703125 92.535156 196 92.878906 197.214844 91.597656 C 195.722656 91.03125 195.546875 89.570312 192.730469 89.902344 C 197.351562 88.066406 200.457031 90.597656 200.007812 95.007812 C 200.78125 94.503906 202.0625 94.835938 202.332031 92.691406 C 202.542969 95.203125 201.542969 96.335938 200.222656 96.515625 C 199.167969 96.660156 197.878906 95.960938 197.101562 96.53125 C 198.164062 101.460938 203.242188 100.847656 205.25 97.777344 C 206.578125 95.742188 206.007812 92.082031 205.671875 90.886719 C 204.6875 87.398438 199.601562 83.40625 195.214844 85.097656 "/>
<path style=" stroke:none;fill-rule:evenodd;fill:#fdf6e3;fill-opacity:1;" d="M 243.675781 96.6875 C 240.789062 99.269531 239.492188 97.421875 236.367188 99.445312 L 238.171875 95.867188 C 233.554688 95.089844 232.238281 99.394531 228.882812 100.042969 C 234.382812 93.121094 235.375 87.078125 233.289062 81.636719 C 232.429688 82.425781 231.503906 82.339844 230.710938 84.003906 C 231.5625 77.046875 221.25 72.851562 218.46875 78.015625 C 229.25 79.238281 230.355469 93.023438 216.882812 109.429688 C 217.421875 100.253906 206.472656 100.679688 207.398438 106.277344 C 211.601562 103.65625 215.445312 110.339844 212.085938 114.882812 C 209.074219 118.953125 196.566406 133.65625 200.222656 139.820312 C 198.941406 144.59375 198.128906 149.5 197.449219 154.445312 L 199.585938 156.457031 C 200.863281 152.128906 201.511719 147.660156 203.421875 143.476562 C 207 144.929688 209.246094 140.164062 214 137.960938 C 219.421875 135.449219 222.507812 139.480469 225.28125 138.28125 L 222.597656 134.527344 C 227.847656 135.03125 227.953125 138.765625 228.054688 141.046875 C 228.238281 145.179688 230.613281 148.695312 233.992188 146.515625 C 232.5 145.277344 232.042969 144.09375 233.347656 141.347656 C 235.359375 137.109375 230.308594 129.21875 219.917969 130.679688 C 221.738281 128.789062 220.761719 127.40625 221.183594 125.769531 C 219.949219 126.421875 218.554688 126.28125 217.488281 127.730469 C 215.84375 124.53125 213.460938 122.5625 210.398438 125.09375 C 212.722656 125.125 212.785156 127 213.988281 127.308594 C 206.3125 132.382812 213.234375 137.519531 203.335938 139.378906 C 206.46875 130.234375 209.429688 131.285156 212.476562 127.234375 C 211.023438 126.859375 210.792969 125.523438 208.113281 126.105469 C 213.820312 116.652344 222.328125 112.074219 231.628906 108.886719 C 234.730469 107.824219 238.003906 109.3125 241.125 106.03125 C 239.820312 105.667969 239.683594 105.074219 237.21875 104.9375 C 246.753906 103.871094 250.042969 97.234375 247.207031 90.796875 C 244.34375 92.511719 245.722656 94.855469 243.675781 96.6875 "/>
<path style=" stroke:none;fill-rule:evenodd;fill:#fdf6e3;fill-opacity:1;" d="M 235.867188 125.335938 C 238.433594 125.605469 240.164062 124.570312 241.316406 122.644531 C 239.289062 121.542969 237.933594 122.148438 234.714844 119.800781 C 229.265625 115.824219 219.320312 117.847656 213.425781 122.253906 C 215.183594 122.871094 216.757812 123.855469 217.929688 125.648438 C 221.214844 124.207031 225.308594 124.683594 227.726562 126.382812 C 230.46875 128.308594 230.492188 132.019531 234.539062 133.367188 L 233.023438 129.292969 C 239.257812 135.820312 245.046875 133.628906 248.972656 128.542969 C 240.054688 129.824219 240.234375 126.402344 235.867188 125.335938 "/>
<path style=" stroke:none;fill-rule:evenodd;fill:#fdf6e3;fill-opacity:1;" d="M 263.777344 115.65625 C 270.34375 114.136719 273.480469 109.097656 271.96875 105.09375 C 268.285156 111.621094 262.222656 114.367188 252.667969 111.597656 C 239.347656 109.300781 226.902344 109.4375 217.601562 118.265625 C 225.835938 115.632812 235.632812 113.769531 242.207031 115.839844 C 245.894531 117.003906 247.066406 120.101562 250.035156 123.292969 C 251.355469 121.914062 251.707031 119.996094 250.730469 118.613281 C 253.355469 121.796875 254.488281 123.527344 254.308594 126.714844 C 256.886719 125.511719 257.300781 122.972656 255.769531 119.9375 C 259.683594 121.945312 259.921875 125.421875 260.863281 128.578125 C 261.746094 131.542969 259.636719 134.878906 256.34375 135.199219 C 257.367188 137.207031 258.945312 137.820312 261.636719 137.324219 C 258.777344 140.191406 252.5 138.082031 254.664062 132.628906 C 250.371094 134.230469 250.574219 137.992188 252.871094 140.375 C 255.433594 143.035156 258.902344 143.171875 259.871094 143.1875 C 266.949219 143.328125 269.410156 135.71875 265.871094 130.308594 C 265.058594 122.414062 259.199219 116.859375 252.535156 113.839844 C 259.746094 115.472656 265.472656 120.230469 268.554688 125.492188 C 270.53125 128.863281 269.949219 131.882812 271.886719 136.074219 C 273.019531 135.304688 273.414062 133.804688 273.074219 131.570312 C 278.144531 138.628906 278.277344 145.980469 274.734375 146.417969 C 277.730469 148.457031 279.992188 144.296875 279.207031 139.542969 C 277.972656 132.097656 270.800781 122.089844 263.777344 115.65625 "/>
<path style=" stroke:none;fill-rule:evenodd;fill:#fdf6e3;fill-opacity:1;" d="M 273.195312 122.523438 C 275.449219 124.496094 275.820312 127.769531 277.175781 129.691406 C 280.734375 134.722656 285.183594 136.007812 289.847656 135.992188 C 284.296875 131.503906 282.484375 123.910156 273.195312 122.523438 M 300.1875 143.464844 C 300.1875 143.472656 300.191406 143.476562 300.191406 143.480469 L 300.191406 141.179688 C 299.949219 141.9375 299.917969 142.75 300.1875 143.464844 M 283.476562 127.207031 C 289.316406 128.511719 295.804688 129.257812 300.191406 131.800781 L 300.191406 127.984375 C 295.984375 126.40625 290.039062 126.523438 283.476562 127.207031 "/>
<path style=" stroke:none;fill-rule:evenodd;fill:#fdf6e3;fill-opacity:1;" d="M 295.367188 114.167969 C 290.109375 118.355469 281.921875 119.25 272.480469 119.984375 C 278.214844 124.734375 283.960938 126.742188 291.683594 126.132812 C 295.675781 125.816406 295.976562 122.902344 299.414062 123.746094 C 298.4375 123.132812 297.898438 122.230469 296.484375 121.902344 C 297.925781 121.96875 299.140625 121.84375 300.191406 121.589844 L 300.191406 108.40625 C 299.003906 110.636719 297.382812 112.5625 295.367188 114.167969 "/>
<path style=" stroke:none;fill-rule:evenodd;fill:#fdf6e3;fill-opacity:1;" d="M 296.617188 78.191406 C 291.46875 79.472656 288.074219 87.507812 292.054688 94.515625 C 290.453125 93.300781 289.867188 94.28125 288.777344 94.160156 C 289.8125 97.679688 293.175781 99.632812 291.882812 104.707031 C 290.695312 103.511719 291.933594 101.769531 291.035156 99.8125 C 289.945312 100.429688 288.949219 99.863281 287.765625 101.667969 C 288.914062 97.023438 283.289062 95.609375 284.628906 92.589844 C 277.519531 93.988281 279.054688 99.976562 278.960938 104.585938 C 278.878906 108.714844 273.757812 115.058594 265.925781 116.382812 C 269.382812 120.457031 278.546875 118.203125 285.554688 113.261719 C 284.175781 115.089844 282.425781 116.296875 280.507812 117.222656 C 288.015625 118.074219 295.980469 114.847656 300.191406 106.757812 L 300.191406 83.453125 C 297.945312 81.890625 296.207031 80.398438 296.617188 78.191406 M 254.410156 53.992188 C 249.832031 50.609375 246.457031 43.550781 242.015625 42.429688 C 233.308594 31.238281 230 34.175781 223.992188 30.046875 C 224.195312 30.953125 223.578125 31.746094 224.601562 32.761719 C 218.597656 28.773438 216.71875 32.929688 213.003906 31.925781 C 213.566406 32.921875 213.007812 34.195312 214.695312 34.914062 C 210.121094 33.734375 207.542969 38.003906 204.195312 37.566406 C 205.660156 38.757812 206.136719 40.878906 208.59375 41.136719 C 202.359375 42.171875 203.09375 46.796875 201.859375 49.609375 C 203.019531 49.246094 203.933594 49.683594 205.34375 48.511719 C 198.625 56.9375 209.515625 61.074219 206.824219 66.835938 C 212.253906 67.703125 218.148438 64.101562 216.722656 56.683594 C 217.460938 58.382812 218.273438 57.972656 219.050781 58.617188 C 220.433594 55.109375 217.320312 48.625 223.195312 48.097656 C 218.394531 49.75 221.046875 53.566406 219.96875 56.296875 C 220.8125 56.089844 221.613281 56.429688 222.5 55.671875 C 216.824219 59.832031 225.601562 61.882812 222.273438 66.597656 C 225.894531 65.492188 229.6875 65.183594 230.398438 57.960938 C 230.726562 59.242188 231.519531 59.277344 232.078125 59.933594 C 234.234375 48.898438 245.035156 47.546875 251.097656 54.097656 C 230.582031 56.9375 236.859375 76.949219 247.804688 80.40625 C 256.316406 83.09375 260.460938 72.488281 254.449219 68.773438 C 249.53125 65.734375 246.394531 74.015625 252.613281 74.261719 C 247.828125 75.902344 244.113281 74.136719 241.464844 68.957031 C 243.378906 71.042969 245.296875 70.796875 246.601562 69 C 239.90625 65.90625 244.886719 60.683594 247.550781 58.921875 C 250.472656 56.988281 255.382812 56.894531 259.484375 58.351562 C 254.796875 58.007812 255.058594 60.082031 252.847656 60.949219 C 254.128906 61.386719 255.6875 62.953125 257.492188 62.007812 C 255.875 65.207031 257.273438 65.746094 257.5625 67.484375 C 259.253906 67.003906 259.128906 65.441406 260.839844 64.617188 C 262.167969 63.972656 264.824219 63.394531 268.941406 66.585938 C 276.753906 72.644531 276.875 82.503906 274.59375 88.890625 C 274.855469 82.707031 273.292969 82.167969 272.640625 78.804688 C 272.171875 79.71875 271.027344 79.839844 271.230469 81.542969 C 269.703125 76.40625 263.117188 74.890625 259.398438 79.035156 C 262.902344 80.265625 265.863281 80.355469 267.363281 81.679688 C 269.707031 83.75 269.351562 87 268.1875 89.757812 C 268.65625 85.582031 264.875 85.203125 263.636719 84.613281 C 262.699219 89.8125 268.941406 93.742188 260.832031 100.203125 C 261.699219 95.09375 258.570312 94.582031 256.457031 92.867188 C 258.109375 99.605469 255.378906 104.6875 243 106.136719 C 242.238281 107.074219 241.34375 107.855469 240.246094 108.398438 C 261.335938 110.703125 279.429688 95.265625 279.269531 79.792969 C 279.097656 63.925781 265.769531 54.175781 254.410156 53.992188 Z M 230.558594 46.753906 C 232.238281 45.363281 234.6875 44.378906 238.835938 44.289062 C 231.914062 40.019531 224.238281 38.5625 214.703125 44.015625 C 225.445312 34.949219 238.476562 40.753906 244.644531 46.914062 C 240.25 45.113281 235.640625 44.5625 230.558594 46.753906 "/>
<path style=" stroke:none;fill-rule:evenodd;fill:#fdf6e3;fill-opacity:1;" d="M 276.632812 44.1875 C 268.988281 45.550781 267.832031 58.832031 276.417969 64.902344 C 273.859375 59.011719 272.5625 53.773438 275.773438 50.867188 C 276.921875 55.070312 282.613281 53.535156 283.078125 49.496094 C 283.433594 46.375 280.667969 43.46875 276.632812 44.1875 M 260.070312 35.390625 C 252.363281 34.46875 245.703125 44.449219 255.566406 51.375 C 251.140625 46.355469 252.421875 40.539062 257.019531 41.097656 C 256.9375 46.097656 263.34375 46.503906 264.695312 42.347656 C 265.710938 39.210938 264.140625 35.878906 260.070312 35.390625 M 205.320312 66.667969 C 194.460938 72.128906 205.90625 76.015625 202.609375 83.371094 C 211.871094 77.230469 200.65625 71.613281 205.320312 66.667969 M 180.617188 44.726562 C 178.320312 48.425781 174.0625 47.570312 171.007812 48.175781 C 172.402344 50.320312 174.792969 51.855469 178.90625 50.003906 C 176 57.410156 182.191406 68.011719 190.457031 65.617188 C 195.964844 64.023438 198.015625 57.902344 195.261719 52.984375 C 193.554688 49.933594 189.644531 50.542969 188.445312 52.480469 C 187.367188 54.226562 189.277344 59.15625 193.074219 56.527344 C 193.097656 61.503906 187.550781 63.46875 184.597656 60.796875 C 187.082031 60.414062 186.742188 58.925781 187.8125 57.992188 C 185.492188 57.96875 183.539062 57.839844 182.371094 55.984375 C 180.554688 53.085938 180.699219 47.511719 184.699219 43.339844 C 183.75 45.347656 185.816406 45.996094 184.007812 48.339844 C 185.097656 47.578125 186.8125 48.011719 187.265625 46.058594 C 187.722656 48.753906 190.285156 48.15625 191.488281 48.265625 C 188.738281 45.710938 190.488281 40.8125 197.03125 39.722656 C 199.492188 39.308594 201.929688 40.292969 206.085938 40.902344 C 201.226562 35.359375 187.082031 34.292969 180.617188 44.726562 M 284.332031 222.238281 C 282.714844 224.214844 281.21875 226.191406 279.878906 228.109375 L 288.816406 228.109375 C 288.226562 227.429688 287.386719 226.851562 286.117188 226.46875 C 288.847656 223.75 293.390625 226.621094 295.210938 222.339844 C 294.226562 221.820312 294.1875 220.867188 292.253906 220.78125 C 297.445312 219.789062 298.59375 221.125 300.191406 222.199219 L 300.191406 209.742188 C 293.257812 211.417969 288.582031 217.050781 284.332031 222.238281 M 279.164062 197.359375 C 274.1875 195.917969 268.976562 200.78125 268.230469 204.710938 C 267.972656 206.054688 267.691406 210.132812 269.34375 212.238281 C 271.835938 215.417969 277.476562 215.613281 278.175781 210.097656 C 277.269531 209.542969 275.917969 210.433594 274.742188 210.378906 C 273.28125 210.308594 272.070312 209.15625 272.0625 206.375 C 272.566406 208.703125 273.941406 208.21875 274.839844 208.699219 C 273.929688 203.898438 277.101562 200.820312 282.351562 202.402344 C 279.226562 202.304688 279.171875 203.925781 277.582031 204.6875 C 279.039062 205.980469 280.433594 205.480469 282.28125 206.484375 C 284.953125 207.9375 287.152344 212.050781 283.800781 220.101562 C 289.609375 216.742188 292.023438 201.078125 279.164062 197.359375 M 266.9375 220.332031 C 267.863281 214.734375 256.914062 214.304688 257.453125 223.480469 C 243.980469 207.078125 245.085938 193.289062 255.867188 192.070312 C 253.085938 186.90625 242.773438 191.101562 243.625 198.058594 C 242.832031 196.390625 241.90625 196.480469 241.046875 195.691406 C 238.960938 201.132812 239.953125 207.175781 245.453125 214.09375 C 242.097656 213.445312 240.78125 209.140625 236.164062 209.917969 L 237.96875 213.5 C 234.84375 211.476562 233.546875 213.320312 230.660156 210.738281 C 228.613281 208.90625 229.992188 206.5625 227.128906 204.847656 C 224.292969 211.285156 227.582031 217.921875 237.117188 218.992188 C 234.648438 219.125 234.511719 219.71875 233.210938 220.085938 C 236.328125 223.367188 239.605469 221.875 242.707031 222.941406 C 246.707031 224.3125 250.5625 225.945312 254.113281 228.109375 L 261.730469 228.109375 C 259.347656 223.632812 262.984375 217.867188 266.9375 220.332031 M 221.667969 225.648438 C 212.117188 228.421875 206.046875 225.671875 202.367188 219.148438 C 201.210938 222.207031 202.78125 225.871094 206.519531 228.109375 L 220.960938 228.109375 C 221.238281 228.035156 221.515625 227.957031 221.800781 227.894531 C 221.648438 227.960938 221.503906 228.039062 221.351562 228.109375 L 250.957031 228.109375 C 242.550781 223.535156 232.394531 223.800781 221.667969 225.648438 M 195.375 218.636719 C 195.28125 214.027344 196.816406 208.039062 189.707031 206.640625 C 191.046875 209.660156 185.421875 211.078125 186.570312 215.71875 C 185.386719 213.914062 184.390625 214.484375 183.300781 213.867188 C 182.402344 215.824219 183.640625 217.5625 182.449219 218.761719 C 181.160156 213.683594 184.523438 211.730469 185.558594 208.214844 C 184.46875 208.332031 183.882812 207.351562 182.28125 208.570312 C 186.261719 201.5625 182.867188 193.527344 177.71875 192.246094 C 178.816406 198.148438 164.539062 198.9375 166.246094 209.621094 C 165.296875 208.101562 164.175781 208.988281 163.140625 208.671875 C 164.753906 210.277344 161.203125 214.542969 165.359375 218.65625 C 161.671875 218.175781 160.03125 219.136719 159.328125 220.746094 C 163.203125 219.871094 161.601562 225.996094 166.117188 228.109375 L 178.835938 228.109375 C 174.828125 224.859375 172.398438 220.332031 171.925781 214.636719 C 173.347656 220.96875 176.546875 225.398438 180.539062 228.109375 L 189.445312 228.109375 C 189.21875 227.855469 188.992188 227.59375 188.78125 227.3125 C 189.171875 227.585938 189.566406 227.851562 189.96875 228.109375 L 202.21875 228.109375 C 197.988281 225.53125 195.433594 221.539062 195.375 218.636719 "/>
<path style=" stroke:none;fill-rule:evenodd;fill:#fdf6e3;fill-opacity:1;" d="M 265.742188 155.191406 C 268.199219 154.933594 268.671875 152.8125 270.140625 151.621094 C 266.792969 152.058594 264.214844 147.789062 259.640625 148.964844 C 261.328125 148.25 260.769531 146.976562 261.332031 145.980469 C 257.617188 146.980469 255.738281 142.828125 249.734375 146.816406 C 250.757812 145.800781 250.140625 145.003906 250.34375 144.101562 C 244.335938 148.226562 241.023438 145.289062 232.320312 156.480469 C 227.875 157.605469 224.507812 164.660156 219.921875 168.046875 C 208.566406 168.226562 195.238281 177.976562 195.070312 193.847656 C 194.902344 209.316406 213 224.753906 234.089844 222.449219 C 232.992188 221.90625 232.09375 221.128906 231.335938 220.1875 C 218.957031 218.742188 216.226562 213.65625 217.878906 206.921875 C 215.765625 208.636719 212.636719 209.148438 213.503906 214.257812 C 205.398438 207.792969 211.632812 203.863281 210.699219 198.667969 C 209.460938 199.257812 205.679688 199.632812 206.148438 203.8125 C 204.984375 201.050781 204.628906 197.800781 206.96875 195.734375 C 208.472656 194.40625 211.433594 194.320312 214.9375 193.085938 C 211.21875 188.941406 204.632812 190.460938 203.105469 195.59375 C 203.308594 193.894531 202.164062 193.769531 201.695312 192.859375 C 201.042969 196.21875 199.480469 196.757812 199.742188 202.945312 C 197.460938 196.554688 197.585938 186.695312 205.398438 180.640625 C 209.511719 177.449219 212.167969 178.027344 213.496094 178.667969 C 215.207031 179.492188 215.082031 181.054688 216.773438 181.539062 C 217.0625 179.800781 218.460938 179.257812 216.84375 176.0625 C 218.648438 177.007812 220.207031 175.441406 221.488281 175 C 219.273438 174.136719 219.539062 172.0625 214.851562 172.40625 C 218.953125 170.945312 223.863281 171.039062 226.785156 172.976562 C 229.445312 174.734375 234.429688 179.960938 227.734375 183.054688 C 229.039062 184.851562 230.957031 185.09375 232.871094 183.011719 C 230.222656 188.1875 226.507812 189.957031 221.722656 188.316406 C 227.9375 188.066406 224.804688 179.785156 219.886719 182.824219 C 213.875 186.539062 218.019531 197.144531 226.527344 194.460938 C 237.476562 191.003906 243.753906 170.988281 223.238281 168.148438 C 229.300781 161.601562 240.101562 162.953125 242.257812 173.984375 C 242.816406 173.328125 243.609375 173.296875 243.9375 172.011719 C 244.648438 179.234375 248.441406 179.546875 252.0625 180.648438 C 248.734375 175.933594 257.511719 173.886719 251.835938 169.726562 C 252.722656 170.484375 253.523438 170.144531 254.367188 170.351562 C 253.289062 167.617188 255.941406 163.804688 251.140625 162.148438 C 257.015625 162.675781 253.902344 169.164062 255.285156 172.667969 C 256.0625 172.023438 256.875 172.433594 257.609375 170.734375 C 256.1875 178.15625 262.082031 181.753906 267.515625 180.886719 C 264.820312 175.125 275.710938 170.992188 268.992188 162.5625 C 270.402344 163.738281 271.316406 163.296875 272.476562 163.664062 C 271.242188 160.851562 271.976562 156.226562 265.742188 155.191406 Z M 235.5 158.34375 C 239.644531 158.433594 242.097656 159.417969 243.777344 160.808594 C 238.695312 158.617188 234.085938 159.167969 229.691406 160.96875 C 235.859375 154.804688 248.890625 149 259.632812 158.070312 C 250.097656 152.613281 242.417969 154.074219 235.5 158.34375 "/>
<path style=" stroke:none;fill-rule:evenodd;fill:#fdf6e3;fill-opacity:1;" d="M 197.703125 158.242188 C 193.667969 157.523438 190.902344 160.429688 191.257812 163.550781 C 191.722656 167.585938 197.414062 169.125 198.5625 164.921875 C 201.773438 167.828125 200.476562 173.066406 197.917969 178.953125 C 206.503906 172.882812 205.34375 159.605469 197.703125 158.242188 M 214.265625 149.445312 C 210.195312 149.929688 208.621094 153.265625 209.644531 156.402344 C 210.992188 160.558594 217.398438 160.148438 217.316406 155.148438 C 221.914062 154.59375 223.195312 160.40625 218.769531 165.429688 C 228.632812 158.5 221.972656 148.523438 214.265625 149.445312 M 269.015625 180.722656 C 273.679688 185.664062 262.464844 191.28125 271.726562 197.421875 C 268.429688 190.070312 279.875 186.183594 269.015625 180.722656 M 291.4375 164.414062 C 288.222656 153.632812 275.460938 151.175781 269.832031 154.910156 C 273.648438 155.367188 276.042969 155.085938 278.121094 156.042969 C 283.644531 158.578125 284.019531 163.332031 280.976562 164.933594 C 282.066406 165.125 284.1875 166.269531 285.238281 163.996094 C 285.171875 165.832031 286.792969 165.863281 287.570312 166.796875 C 286.535156 164.289062 288.519531 164.210938 288.160156 162.207031 C 290.695312 166.859375 289.488281 171.824219 287.183594 173.953125 C 285.707031 175.3125 283.949219 174.957031 281.890625 174.417969 C 282.613281 175.503906 281.957031 176.738281 284.0625 177.671875 C 280.808594 179.328125 276.375 176.253906 277.589844 171.855469 C 280.316406 175.09375 283.1875 171.195312 282.652344 169.394531 C 282.058594 167.390625 278.742188 165.910156 276.5 168.199219 C 272.886719 171.886719 273.234375 177.792969 277.722656 180.53125 C 284.457031 184.632812 292.480469 176.746094 291.683594 169.492188 C 294.878906 172.121094 297.363281 171.339844 299.109375 169.777344 C 296.554688 168.507812 292.582031 168.242188 291.4375 164.414062 M 273.375 12.769531 L 274.953125 13.066406 C 277.664062 8.703125 281.519531 4.519531 284.308594 3.832031 C 286.765625 3.230469 288.160156 5.988281 290.601562 4.679688 C 290.152344 3.183594 290.007812 1.378906 288.816406 0.00390625 L 279.878906 0.00390625 C 276.253906 5.1875 273.804688 9.902344 273.375 12.769531 M 292.605469 19.828125 C 285.15625 14.527344 276.066406 26.269531 279.046875 36.359375 C 280.683594 30.148438 282.910156 25.234375 287.226562 24.949219 C 285.527344 28.957031 291.265625 31.570312 293.808594 28.402344 C 296.5 25.054688 295.8125 22.113281 292.605469 19.828125 M 266.222656 12.050781 C 263.542969 11.46875 263.3125 12.804688 261.859375 13.183594 C 264.90625 17.230469 267.867188 16.179688 271 25.324219 C 261.101562 23.464844 268.023438 18.328125 260.347656 13.257812 C 261.550781 12.949219 261.613281 11.074219 263.9375 11.039062 C 260.875 8.511719 258.488281 10.480469 256.847656 13.675781 C 255.78125 12.226562 254.382812 12.371094 253.152344 11.71875 C 253.574219 13.355469 252.597656 14.734375 254.417969 16.628906 C 244.023438 15.167969 238.976562 23.054688 240.988281 27.296875 C 242.292969 30.039062 241.835938 31.222656 240.34375 32.464844 C 243.722656 34.644531 246.097656 31.125 246.28125 26.992188 C 246.382812 24.710938 246.488281 20.980469 251.738281 20.472656 L 249.054688 24.230469 C 251.832031 25.425781 254.914062 21.394531 260.335938 23.90625 C 265.089844 26.109375 267.335938 30.878906 270.914062 29.425781 C 272.824219 33.609375 273.472656 38.078125 274.75 42.402344 L 276.886719 40.394531 C 276.207031 35.449219 275.394531 30.542969 274.113281 25.765625 C 277.769531 19.605469 265.261719 4.898438 262.25 0.832031 C 262.050781 0.5625 261.878906 0.285156 261.730469 0.00390625 L 254.113281 0.00390625 C 258.808594 2.867188 262.972656 6.667969 266.222656 12.050781 "/>
<path style=" stroke:none;fill-rule:evenodd;fill:#fdf6e3;fill-opacity:1;" d="M 239.621094 5.746094 C 236.402344 8.097656 235.046875 7.492188 233.019531 8.589844 C 234.171875 10.519531 235.902344 11.550781 238.46875 11.28125 C 234.101562 12.351562 234.28125 15.769531 225.363281 14.488281 C 229.285156 19.574219 235.078125 21.765625 241.308594 15.238281 L 239.796875 19.3125 C 243.839844 17.96875 243.867188 14.257812 246.609375 12.328125 C 249.027344 10.628906 253.121094 10.152344 256.40625 11.597656 C 257.578125 9.800781 259.152344 8.816406 260.910156 8.203125 C 255.015625 3.796875 245.070312 1.773438 239.621094 5.746094 "/>
<path style=" stroke:none;fill-rule:evenodd;fill:#fdf6e3;fill-opacity:1;" d="M 208.464844 16.253906 C 204.925781 21.664062 207.386719 29.273438 214.464844 29.136719 C 215.429688 29.117188 218.902344 28.980469 221.464844 26.320312 C 223.761719 23.941406 223.964844 20.175781 219.671875 18.578125 C 221.835938 24.027344 215.558594 26.136719 212.699219 23.269531 C 215.390625 23.765625 216.96875 23.15625 217.992188 21.148438 C 214.699219 20.824219 212.589844 17.492188 213.472656 14.527344 C 214.414062 11.371094 214.652344 7.890625 218.566406 5.882812 C 217.035156 8.917969 217.449219 11.460938 220.027344 12.664062 C 219.847656 9.476562 220.980469 7.746094 223.605469 4.5625 C 222.628906 5.941406 222.980469 7.859375 224.300781 9.242188 C 227.269531 6.046875 228.441406 2.949219 232.128906 1.789062 C 238.703125 -0.28125 248.5 1.578125 256.734375 4.214844 C 254.921875 2.496094 252.992188 1.109375 250.957031 0.00390625 L 221.351562 0.00390625 C 214.875 3.066406 209.257812 8.539062 208.464844 16.253906 "/>
<path style=" stroke:none;fill-rule:evenodd;fill:#fdf6e3;fill-opacity:1;" d="M 195.128906 25.488281 C 194.34375 30.246094 196.601562 34.402344 199.597656 32.363281 C 196.058594 31.925781 196.191406 24.574219 201.261719 17.519531 C 200.921875 19.753906 201.316406 21.253906 202.449219 22.023438 C 204.386719 17.832031 203.804688 14.8125 205.777344 11.4375 C 208.742188 6.386719 214.148438 1.804688 220.957031 0.00390625 L 206.519531 0.00390625 C 207.667969 0.691406 209.015625 1.246094 210.554688 1.605469 C 203.535156 8.039062 196.359375 18.046875 195.128906 25.488281 M 184.484375 21.9375 C 189.148438 21.953125 193.601562 20.667969 197.15625 15.636719 C 198.515625 13.714844 198.886719 10.441406 201.140625 8.472656 C 191.851562 9.859375 190.035156 17.449219 184.484375 21.9375 M 170.613281 24.542969 C 167.996094 25.089844 167.21875 28.46875 169.828125 29.414062 C 167.890625 31.140625 165.945312 30.445312 164.476562 27.234375 C 162.710938 33.917969 171.675781 36.015625 174.152344 29.414062 C 174.980469 27.203125 172.96875 24.046875 170.613281 24.542969 "/>
<path style=" stroke:none;fill-rule:evenodd;fill:#fdf6e3;fill-opacity:1;" d="M 171.46875 15.347656 C 165.109375 14.09375 160.484375 15.597656 153.746094 14.789062 C 157.699219 16.035156 159.011719 18.089844 165.613281 18.527344 C 159.847656 22.34375 153.511719 22.660156 147.015625 21.992188 C 150.476562 24.472656 154.378906 26.082031 159.851562 24.597656 C 158.320312 28.535156 159.65625 31.847656 162.726562 34.113281 C 159.363281 23.808594 169.664062 23.628906 173.136719 18.386719 C 177.488281 15.316406 184.554688 14.5625 190.859375 13.15625 C 182.75 12.308594 175.582031 12.324219 171.46875 15.347656 M 193.828125 3.171875 C 192.203125 2.386719 190.703125 1.394531 189.445312 0.00390625 L 180.539062 0.00390625 C 184.503906 2.695312 189.25 3.691406 193.828125 3.171875 M 208.410156 2.328125 C 206.085938 1.933594 204.003906 1.09375 202.21875 0.00390625 L 189.96875 0.00390625 C 196.789062 4.378906 205.144531 6.179688 208.410156 2.328125 "/>
<path style=" stroke:none;fill-rule:evenodd;fill:#fdf6e3;fill-opacity:1;" d="M 164.367188 1.710938 C 168.527344 1.851562 169.234375 8.246094 177.851562 7.851562 C 176.4375 8.175781 175.898438 9.078125 174.921875 9.691406 C 178.359375 8.847656 178.660156 11.765625 182.648438 12.082031 C 190.375 12.691406 196.121094 10.679688 201.855469 5.933594 C 192.414062 5.199219 184.226562 4.300781 178.96875 0.113281 C 178.921875 0.078125 178.882812 0.0390625 178.835938 0.00390625 L 166.117188 0.00390625 C 166.628906 0.242188 167.214844 0.433594 167.902344 0.554688 C 166.363281 0.460938 165.542969 1.324219 164.367188 1.710938 "/>
</g>
</svg>
