<svg xmlns="http://www.w3.org/2000/svg" viewBox="0 0 185.21 185.21">
  <path fill="#eee8d5" d="M84.93 183.73a91.02 91.02 0 0 1-42.5-14.76 78.9 78.9 0 0 1-14.45-11.8 79.7 79.7 0 0 1-11.68-14.24 91.6 91.6 0 0 1-14.46-38.67c-.77-5.53-.76-17.71 0-23.3C5.34 55.5 18.4 33.62 39.12 18.53a91.63 91.63 0 0 1 68.02-16.06c5.73.95 8.69 1.68 14.17 3.49a91.48 91.48 0 0 1 57.84 57.46 91.81 91.81 0 0 1-.85 60.94 115.1 115.1 0 0 1-9.13 18.03 91 91 0 0 1-36.25 32.11 86.45 86.45 0 0 1-28.7 8.78c-4.42.59-14.76.83-19.29.45zm19.61-.94a91.84 91.84 0 0 0 44.76-19.08c4.06-3.23 11.6-10.8 14.59-14.67 9.07-11.7 15.23-25.05 17.89-38.74 2.1-10.78 2.13-24.58.1-34.88a93.46 93.46 0 0 0-18.53-39.9c-3.04-3.8-10-10.72-13.85-13.77-13.26-10.51-27.3-16.56-44.63-19.21-5.33-.82-19.4-.82-24.65 0C59.38 5.76 42.24 14.31 28.16 28.5A87.66 87.66 0 0 0 12.6 49.3C5.13 63.21 1.73 76.76 1.73 92.61c0 10.17 1 17.02 3.94 27.08 2.74 9.38 9.53 22.03 16.17 30.17 13.2 16.18 31.96 27.63 52.05 31.78 9.43 1.95 21.67 2.4 30.65 1.15zM87.2 179.3c-7.3-.6-13.2-1.66-19.3-3.46-29.88-8.8-52.7-33.1-59.95-63.78-6.8-28.85 2.07-59.69 23.27-80.78A84.77 84.77 0 0 1 70.64 8.77a79.64 79.64 0 0 1 21.88-2.79 86.32 86.32 0 0 1 67.86 32.53c17.07 21.38 23.15 49.77 16.2 75.67a81.79 81.79 0 0 1-7.28 18.79 87.07 87.07 0 0 1-51.13 42.63c-9.34 2.93-22.03 4.46-30.98 3.71zm19.46-1.54c16.5-2.86 30.2-9.37 42.86-20.34a94.38 94.38 0 0 0 9.57-9.83c1.12-1.43 1.04-1.98-.15-1.01a41.88 41.88 0 0 1-16.92 8.64c-3.72.97-12.18 1.23-16.22.49-15.48-2.85-27.78-13.96-31.98-28.9a51.48 51.48 0 0 1-1.59-11.12 23.37 23.37 0 0 0-8.55-17.62c-1.98-1.6-4.8-3.1-7.5-4.01-2.5-.84-7.21-1.3-9.2-.91-1.46.28-1.67.26-1.68-.2 0-.28-.6-1.6-1.34-2.94-1.58-2.84-5.38-6.77-8.12-8.38a23.14 23.14 0 0 0-33.58 12.29c-1.13 3.2-1.42 9.68-.58 12.93a26.74 26.74 0 0 0 3.39 7.61l1.01 1.47 4.78.1 4.77.1-4.86.07-4.87.08-1.04 1.54c-2.72 4.01-3.8 8.16-3.6 13.76.13 3.26.32 4.47 1.05 6.59 5.6 16.16 24.26 31.06 47.05 37.57 8.34 2.38 14.55 3.13 24.82 2.98 6.4-.1 8.4-.25 12.48-.96zm-22.86-6.84a77.61 77.61 0 0 1-34.7-12.64c-8.93-5.9-16.08-13.78-19.12-21.07-3.19-7.67-.55-16.13 6.24-19.96 2.1-1.19 2.08-1.48-.23-2.66-2.9-1.48-6.2-5.95-7.02-9.52-.88-3.8-.1-8.7 1.9-11.82a16.87 16.87 0 0 1 6.26-5.66c10.28-5.14 22.08 2.22 22.38 13.96l.06 2.3 1.81-1.1a15.1 15.1 0 0 1 18.73 2.32c3.38 3.38 4.46 6.31 4.82 13.15a45.5 45.5 0 0 0 4.9 18.97 46.58 46.58 0 0 0 21.7 21.6c5.44 2.65 11.55 4.5 14.98 4.52h1.23l-1.94.84c-9.41 4-15.63 5.7-24.81 6.78-4.75.56-12.38.56-17.2 0zm19.95-.8c5.52-.81 12.2-2.54 16.94-4.4 2.1-.81 3.93-1.6 4.07-1.74.15-.14-.66-.44-1.78-.65-2.7-.52-8-2.3-10.82-3.62a48.77 48.77 0 0 1-24.32-25.75c-2.13-5.19-2.84-8.78-3.7-18.75-.23-2.78-.49-3.9-1.24-5.51-3.68-7.83-12.91-10.91-20.73-6.94-.92.47-1.77 1-1.88 1.18-.12.18-.5.49-.87.68-.64.35-.65.3-.44-1.7a15.45 15.45 0 0 0-3.95-11.65c-8.94-9.56-24.96-4.04-25.95 8.95-.53 6.85 3.34 12.74 10.12 15.43l.97.38-.81.24c-3.92 1.13-7.88 4.92-9.42 9.03-1.56 4.17-1.12 8.57 1.34 13.56 7.3 14.79 27.68 27.74 48.95 31.12a80.98 80.98 0 0 0 23.52.14zm25.4-7.04c.23-.1.5-.08.61.03.11.1-.08.18-.42.17-.38-.02-.46-.1-.2-.2zm1.27-.32c.22-.09.59-.09.81 0 .22.1.04.17-.4.17-.45 0-.63-.08-.41-.17zm5.43-1.4c.9-.39 1.4-.39.81 0a2 2 0 0 1-.97.3c-.32-.02-.26-.12.16-.3zm2.11-.65c.27-.17.63-.32.81-.32.18 0 .1.15-.16.32-.27.17-.63.31-.81.31-.18 0-.1-.14.16-.31zm3.57-1.46c.45-.26.96-.46 1.13-.46.18 0-.04.2-.48.46-.45.25-.96.46-1.14.46-.18 0 .04-.2.49-.46zm1.62-.61c0-.07.23-.22.5-.33.3-.1.42-.05.3.13-.18.31-.8.46-.8.2zm1.54-.89c.22-.22.48-.32.58-.22.1.1-.08.28-.4.4-.46.18-.5.14-.18-.18zm1.06-.43c0-.09.43-.39.97-.67.53-.27.97-.43.97-.34 0 .1-.44.4-.97.67-.54.28-.97.43-.97.34zm2.91-1.6c0-.08.44-.47.98-.85.53-.38.97-.62.97-.53 0 .09-.44.47-.97.86-.54.38-.98.62-.98.53zm4.55-3.34c.8-.68 2.62-2.33 4.05-3.66l2.6-2.43-2.11 2.2a42.24 42.24 0 0 1-4.06 3.66c-1.44 1.09-1.56 1.15-.48.23zm-15.28 2.8c12.32-1.54 22.94-8.64 29.42-19.65 2.35-4 6-11.8 5.51-11.8a17 17 0 0 0-1.16 2.1c-.59 1.16-1.18 2.04-1.31 1.95-.14-.08-.23.1-.2.42.02.3-.12.53-.32.5-.2-.04-1 .68-1.79 1.6-3.97 4.72-8.3 7.3-14.27 8.52-1.74.36-3.55.5-5.06.4l-2.35-.14-1.31 2.39a28.13 28.13 0 0 1-7.55 8.28 25.25 25.25 0 0 1-8.62 3.58l-2.15.4 1.46.23c.8.12-.3.16-2.43.1-3.83-.12-3.87-.12-2.27.34 3.66 1.05 9.64 1.38 14.4.78zm-7.34-1.51c.49-.08 1.22-.08 1.62 0 .4.08 0 .14-.9.14-.89 0-1.22-.07-.72-.14zm4.9-.77c1.42-.35 2.63-.58 2.7-.5.16.16-3.94 1.18-4.67 1.15-.32-.01.57-.3 1.98-.65zm4.1-1.11c1.47-.57 2.06-.56.8.01-.53.25-1.19.44-1.46.44-.26 0 .03-.21.65-.45zm4.01-1.48c1.23-.53 2.3-.91 2.36-.84.16.16-3.71 1.84-4.2 1.82-.22 0 .61-.45 1.84-.98zm3.47-1.4c.07-.08.86-.53 1.76-1.02.89-.5 1.67-.93 1.73-.98.06-.05-.06-.43-.27-.85l-.37-.76.6.74.6.75 3.23-2.25c6.15-4.27 10.5-8.54 13.81-13.53.76-1.14 1.44-2.01 1.52-1.94.37.37-4.03 5.93-7.21 9.1a56.74 56.74 0 0 1-12.27 9.31c-2.25 1.3-3.67 1.94-3.13 1.42zm2.47-4.01l-1.04-1.87c-.5-.89-.76-1.47-.58-1.3.47.46 2.14 3.41 1.93 3.41-.1 0-.23-.1-.3-.24zm-2.66-4.62c-.28-.54-.43-.98-.34-.98.09 0 .39.44.67.98.27.53.43.97.34.97-.1 0-.4-.44-.67-.97zm-15.9 12c4-1.26 6.57-2.82 9.59-5.83a20.83 20.83 0 0 0 3.97-5.09c.66-1.27 1.2-2.49 1.2-2.7 0-.2-.6-1.43-1.33-2.7-2.34-4.06-2.65-4.65-2.08-3.96.29.36 1.21 1.87 2.05 3.37 1 1.78 1.8 2.82 2.34 3.03.47.19 2.25.24 4.22.14 8-.44 14.25-4.29 19.14-11.77 6.24-9.54 9.1-21.82 8.65-37.1a81.55 81.55 0 0 0-8.81-35.18 85.49 85.49 0 0 0-42.01-40.56c-6.8-3.04-19.36-6.65-21.38-6.14-.77.2-.7.27.94.94a39.95 39.95 0 0 1 13.6 8.9 40.11 40.11 0 0 1 3.76 52.97 42.03 42.03 0 0 1-9.64 9.12c-2.11 1.4-2.44 1.74-2.1 2.16.34.44.31.45-.19.05-.5-.39-.73-.33-1.87.46-1.95 1.35-5.19 4.95-6.57 7.3a23.48 23.48 0 0 0-1.89 18.54c.76 2.2 2.15 4.98 3.18 6.35l.8 1.06-1.3 1.94c-9.12 13.65-1.09 32.32 15.2 35.36 2.5.47 8.02.12 10.54-.67zm-10.53-7.08A15.38 15.38 0 0 1 109 130.4a15.4 15.4 0 0 1 8.04-13.66l1.82-1.01-1.81-1.02c-7.21-4.07-10.1-12.75-6.67-20.08 1.1-2.36 4.02-5.58 6.16-6.8 11.61-6.64 20.18-18.48 23.08-31.88.62-2.88.73-4.34.72-9.71 0-6.98-.5-10.25-2.38-15.54-1.17-3.32-1.75-4.1-6.63-8.95-2.15-2.14-3.04-3.14-1.97-2.23a74.68 74.68 0 0 1 6.83 6.95c.55.64 2.51 2.31 4.38 3.71 4.29 3.24 11.42 10.38 14.6 14.63 12.36 16.45 17.94 36.44 15.73 56.25-1.2 10.73-5.37 20.85-10.64 25.82a15.3 15.3 0 0 1-18.07 2.36c-.97-.52-1.88-.95-2.03-.95-.14 0-.26.92-.27 2.03-.01 8.45-7.32 15.58-15.85 15.47a18.7 18.7 0 0 1-3.6-.57zm6.8-.22c2.28-.3 5.79-2.17 7.73-4.11 3.18-3.18 4.97-8.38 4.32-12.53-.15-.93-.24-1.69-.2-1.69.04 0 1 .63 2.15 1.4a13.55 13.55 0 0 0 8.39 2.53c4.36-.03 7.27-1.17 10.3-4.04 2.28-2.14 3.98-4.66 5.93-8.76 4.54-9.54 6.1-22.31 4.33-35.4a78.3 78.3 0 0 0-28.66-50.88c-3.13-2.53-3.82-2.9-3.43-1.9 2.61 6.74 3.6 17.26 2.32 24.48-2.53 14.11-9.89 25.12-22.15 33.13-3.98 2.6-5.95 4.54-7.22 7.07a15.1 15.1 0 0 0 6.9 20.35l2.23 1.06-2.32 1.13a14.9 14.9 0 0 0-7.05 19.64c2.3 4.93 6.27 7.9 11.57 8.65 1.77.25 2.06.24 4.87-.13zm13.65-15.05c-.38-.73-.62-1.33-.54-1.33.24 0 1.52 2.35 1.37 2.5-.09.09-.46-.44-.83-1.17zm-25.97-44.47c-.19-.36-.27-.65-.18-.65.09 0 .32.3.5.65.2.36.28.65.2.65-.1 0-.33-.3-.52-.65zm-.97-1.62c-.2-.36-.27-.65-.19-.65.1 0 .32.3.51.65.2.36.28.65.19.65-.09 0-.32-.3-.51-.65zm12-66.85c-1.13-1-1.13-1-.09-.3a6.1 6.1 0 0 1 1.24 1c.3.5.05.35-1.15-.7zm-4.46-2.92c-1.1-.71-1.46-1.19-.49-.65.75.41 1.91 1.31 1.7 1.32-.08 0-.63-.3-1.2-.67zm-2.19-1.26c-.11-.18.02-.24.3-.13.57.22.67.45.2.45-.16 0-.39-.14-.5-.32zm-3.73-1.79c-.8-.43-1.31-.78-1.13-.78.17 0 .98.35 1.78.78.8.43 1.31.79 1.14.79-.18 0-.99-.36-1.79-.79zm-4.54-1.78c-.27-.17-.34-.31-.16-.31.18 0 .54.14.81.31.27.17.34.31.16.31-.18 0-.54-.14-.8-.3zm-2.27-.65c-.27-.17-.34-.31-.16-.31.18 0 .54.14.8.31.28.17.35.32.17.32-.18 0-.54-.15-.81-.32zm-82.9 138.42c-.14-.23-.57-.85-.97-1.38-1.04-1.41-2.14-3.46-1.95-3.65.09-.08-.2-1.13-.65-2.3a25.16 25.16 0 0 1-1.26-14.06c.5-2.36 2.16-6.3 3.4-8.04.89-1.25.83-1.7-.52-4a23.37 23.37 0 0 1-3.37-12.23c0-2.68.64-6.35 1.44-8.27.26-.63.4-1.36.3-1.63-.1-.26-.03-.47.17-.47s.36-.15.36-.33c0-.18.52-1.09 1.16-2.03l1.17-1.7-2 2.1c-5.35 5.66-9.07 13.57-10.2 21.72-.64 4.53-.64 6.4 0 10.52 1.24 8.08 4.35 14.83 10.76 23.31 1.93 2.56 2.8 3.54 2.15 2.44zm-4.83-8.43c-1.4-3.08-2.18-5.16-1.99-5.35.08-.07.32.42.54 1.1.22.69.97 2.47 1.66 3.97s1.2 2.78 1.13 2.84c-.06.07-.67-1.09-1.34-2.56zm-2.58-6.6c-.12-.47-.15-.93-.07-1 .07-.08.23.25.35.72.12.48.16.93.08 1-.08.08-.24-.24-.36-.72zm-.83-3.06a5.44 5.44 0 0 1-.25-1.8c.07-.08.31.61.52 1.53.22.92.33 1.73.26 1.8-.07.07-.31-.62-.53-1.53zm-.59-3.08c.01-.53.08-.71.17-.4.08.32.07.76-.02.98-.09.22-.15-.04-.15-.58zm-.3-2.6c0-.7.07-.96.15-.56.07.4.07 1-.01 1.3-.08.31-.14-.02-.14-.73zm-.3-3.88c0-1.25.06-1.72.13-1.05.07.67.07 1.7 0 2.27-.07.57-.13.02-.13-1.22zm-.1-3.65c0-.4.08-.45.25-.18.17.27 1.57.43 4.3.5l4.04.1-4.3.07c-3.9.07-4.3.02-4.3-.5zm.1-3.33c0-1.34.06-1.88.13-1.21.07.66.07 1.76 0 2.43-.07.67-.13.12-.13-1.22zm.25-3.54c-.04-.97.64-4.97.82-4.8a15 15 0 0 1-.33 2.86c-.25 1.5-.47 2.37-.49 1.94zm1-5.7c-.01-.36.11-.94.26-1.3.36-.83.36.03 0 1.14-.2.65-.26.68-.26.16zm.63-2.43c0-.27.13-.78.28-1.14.18-.4.28-.47.28-.16 0 .27-.12.78-.28 1.13-.17.41-.28.47-.28.17zm.94-3.09c0-.17.14-.54.32-.8.17-.27.31-.35.31-.17 0 .18-.14.54-.31.81-.18.27-.32.34-.32.16zm.66-1.62c0-.18.21-.69.47-1.13.25-.45.46-.67.46-.49 0 .18-.2.69-.46 1.14-.26.44-.47.66-.47.48zm1.63-3.4c.47-1 .62-1.18.62-.77 0 .18-.23.6-.5.95-.48.6-.49.58-.12-.18zm82.82 50.3c-.82-1.05-1.53-2.25-1.59-2.67-.05-.42-.48-2.06-.94-3.64a23.9 23.9 0 0 1-.23-11.96 29.87 29.87 0 0 1 3.67-8.06l.65-.9-.66-.92a24.11 24.11 0 0 1-2.66-22.49c.2-.36.26-.8.15-.98-.12-.18.36-1.1 1.06-2.02 1.99-2.66 1.91-2.84-.24-.56-4.9 5.2-8.44 12.26-9.95 19.84-.8 4.04-.7 11.2.21 15.36a39.95 39.95 0 0 0 11.9 20.92c.06 0-.56-.86-1.37-1.91zm-2.59-3.95c-.28-.55-.46-1.06-.39-1.13.07-.07.37.38.67 1 .67 1.4.43 1.5-.28.13zm-.97-1.94c-.12-.19-.14-.42-.06-.5.09-.09.24.07.35.35.22.57.03.67-.29.15zm-1.41-3.6a14.48 14.48 0 0 1-.66-2.36c.01-.19.38.67.8 1.9.44 1.24.74 2.3.67 2.37-.07.07-.43-.79-.81-1.9zm-1.17-3.84c-.12-.56-.16-1.08-.07-1.17.08-.08.24.32.35.89.27 1.35.01 1.61-.28.28zm-.65-2.92c-.12-.73-.16-1.4-.07-1.49.08-.08.24.46.36 1.2s.16 1.42.08 1.5c-.08.07-.24-.47-.37-1.2zm-.4-3.08c0-.71.07-.97.14-.56.08.4.08.99 0 1.3-.08.3-.15-.02-.14-.74zm-.31-3.24c0-1.07.06-1.47.13-.89.08.59.08 1.46 0 1.95-.07.49-.13 0-.13-1.06zm-.37-3.4c0-.45.07-.64.16-.41.09.22.09.59 0 .8-.09.23-.16.05-.16-.4zm.37-5.85c0-.98.06-1.38.13-.89.08.5.08 1.3 0 1.79-.07.49-.13.09-.13-.9zm.3-3.24c0-.62.07-.88.15-.57.08.32.08.83 0 1.14-.08.31-.15.06-.15-.57zm.32-2.27c0-.45.11-1.18.25-1.62.2-.64.26-.67.26-.16 0 .35-.12 1.08-.26 1.62-.22.87-.25.89-.25.16zm.78-3.57c.11-.62.33-1.42.49-1.78.2-.45.22-.3.08.49-.12.62-.34 1.42-.5 1.78-.19.44-.21.3-.07-.49zm1.28-4.21c.24-1.01 2.8-6.53 2.96-6.38.06.07-.46 1.35-1.15 2.84l-1.63 3.54-.37.8zm-87.06 25.69c-.2-.07-.3-.26-.19-.43.1-.17.02-1.91-.19-3.88-.96-9.1 1.8-19.2 7.4-26.99 2.4-3.35 7.15-7.9 10.59-10.14a40.09 40.09 0 0 1 22.07-6.63c6.31 0 11.4 1.13 17.14 3.82l3.2 1.5.65-.8.66-.8-.53.9c-.52.87-.52.88.7 1.5.67.34 2.31.96 3.65 1.37 3.46 1.07 9.17 1.07 12.64 0a21.43 21.43 0 0 0 9.77-5.87c2.69-2.66 5.13-6.26 5.24-7.73.04-.55.16-.58 1-.3 1.4.5 6.82.06 9.45-.75 4.04-1.24 6.55-2.77 9.74-5.97 2.28-2.28 3.2-3.48 4.14-5.42 4.54-9.28 2.93-19.65-4.14-26.7a29.2 29.2 0 0 0-4.44-3.67c-3.82-2.24-9.5-3.57-13.43-3.15l-1.98.21-1.37 2.41a15.29 15.29 0 0 1-1.54 2.42c-.15 0 1.53-3.12 2.35-4.33 1.22-1.83-4.52-9.28-9.39-12.18-15.2-9.04-44.33-.08-64.13 19.73C18.52 44.63 10.26 60.83 7.18 79.4c-.97 5.84-1.05 19.49-.14 25.2 1.38 8.78 5.03 21.33 5.65 19.47.1-.26 0-.52-.21-.6zm-1-2.53c.02-.38.1-.45.2-.2.1.24.08.52-.03.63-.1.1-.18-.09-.17-.43zm-.62-2.4c0-.45.07-.63.16-.41.1.22.1.59 0 .81-.09.22-.16.04-.16-.4zm-.32-1.63c0-.44.07-.63.16-.4.09.22.09.59 0 .8-.1.23-.16.05-.16-.4zm-.35-1.8c.01-.39.09-.46.2-.2.09.23.07.51-.03.62-.11.1-.19-.09-.17-.43zm-.26-4.2c0-.89.06-1.22.14-.72.07.49.07 1.22 0 1.62-.08.4-.14 0-.14-.9zm-.34-3.08c0-.62.06-.88.14-.57.09.32.09.83 0 1.14-.08.31-.14.06-.14-.57zm.35-3.4c0-1.07.06-1.47.13-.9.07.6.07 1.47 0 1.96-.08.48-.14 0-.13-1.06zm.25-4.57c.01-.38.09-.46.2-.2.09.24.07.52-.03.62-.11.11-.19-.08-.17-.42zm.32-1.3c.02-.38.1-.45.2-.2.09.24.08.52-.03.63-.1.1-.18-.09-.17-.43zm.35-1.76c0-.44.07-.63.16-.4.1.22.1.59 0 .8-.09.23-.16.05-.16-.4zm.3-1.48c.01-.38.1-.46.2-.2.09.23.08.51-.03.62-.1.11-.19-.08-.17-.42zm2.27-7.46c.01-.38.1-.46.2-.2.09.24.08.51-.03.62-.1.11-.19-.08-.17-.42zm.42-1.27c.09-.36.26-1.67.38-2.92.78-8.23 3.64-17.77 7.84-26.18a77.81 77.81 0 0 1 34.16-34.74c8.88-4.6 16.65-6.7 24.86-6.7 6.77-.01 10.08 1.14 13.7 4.77 3.16 3.18 4.54 6.4 4.56 10.66 0 1.08.08 2.05.18 2.15.1.1 1.24-.37 2.54-1.05 6.25-3.23 13.05-2.16 18 2.84 3.46 3.48 4.81 7.06 4.5 11.9a15.04 15.04 0 0 1-8.54 12.7 14.44 14.44 0 0 1-13.36.1 614.3 614.3 0 0 0-2.48-1.21c-.16-.08-.2.1-.08.4.13.35.08.47-.13.34-.2-.12-.27-.42-.17-.67.1-.25.03-.45-.14-.45s-.32.99-.32 2.19c-.01 2.8-.44 4.61-1.67 7.11-2.78 5.64-9.5 9.2-15.68 8.32-1.94-.28-3.47-.85-7.54-2.8-8.77-4.2-13.24-5.25-22.46-5.25-5.44 0-6.8.1-9.73.76a49.82 49.82 0 0 0-18.84 8.64 62.62 62.62 0 0 0-8.85 8.6c-.6.76-.85.92-.73.49zm3.5-4.24a50.14 50.14 0 0 1 16.82-11.45 48.6 48.6 0 0 1 12.4-3.18c5.15-.73 11.78-.28 17.48 1.17 4.24 1.08 5.9 1.72 11.86 4.64l4.15 2.03h3.89c4.32 0 5.46-.35 8.81-2.65 4.12-2.84 6.59-8.18 6.15-13.34l-.2-2.36 1.47 1c.8.56 2.3 1.4 3.32 1.88 1.69.8 2.2.87 5.76.87 3.87 0 3.94-.01 6.37-1.21 2.93-1.45 5.7-4.07 6.9-6.51.45-.93 1.07-2.82 1.37-4.22.48-2.18.5-2.86.16-4.86-1.36-7.97-7.76-13.22-15.6-12.8-3.23.18-5.82 1.06-7.98 2.71-.8.61-1.53 1.1-1.62 1.1-.1 0-.08-.9.03-2.02.55-5.4-2.22-11.06-6.92-14.18-5.7-3.77-17.7-3.29-28.94 1.17-25.42 10.07-44.29 34.09-47.99 61.1-.2 1.51-.43 3-.49 3.32-.06.31-.06.57.01.57.07 0 1.32-1.25 2.79-2.78zm84.6-19.28c-.2-.36-.27-.65-.19-.65.1 0 .32.3.51.65.2.36.28.65.19.65-.1 0-.32-.3-.51-.65zm-2.27-29.58c0-.31 2.63-4.8 2.81-4.8.1 0-.3.84-.88 1.87-1.18 2.1-1.93 3.24-1.93 2.93zm-5.15 69.66a41.22 41.22 0 0 1 10.26-16.32c1.85-1.83 3.24-3.32 3.1-3.32-.15 0-1.07.3-2.05.68-.98.37-3.43 1.03-5.43 1.46a41 41 0 0 1-21.14-1.32 11.66 11.66 0 0 0-2.53-.7c-.07.07.29.44.79.83 5.43 4.2 10.7 11.68 13.05 18.5a75.09 75.09 0 0 1 1.99 8.1c0 .1.3-1.2.66-2.88.35-1.68.94-3.95 1.3-5.03zm-4.22.51a39.78 39.78 0 0 0-45.6-26.72l-2.93.54 2.44.23c9.8.95 16.46 5.14 20.81 13.1l.89 1.61 3.01.04c4.11.05 7.3.81 10.96 2.62 2.56 1.27 3.57 2.01 5.93 4.36 1.57 1.56 2.74 2.67 2.62 2.45-2.84-4.86-6.65-8.9-13.27-14.1-.53-.41-.73-.64-.47-.51.27.13 1.37.9 2.44 1.71 5.39 4.1 10.33 9.98 12.65 15a16.32 16.32 0 0 0 1.4 2.71 19.7 19.7 0 0 0-.88-3.04zM67.24 90.03c0-.17.15-.4.33-.5.18-.12.23.01.12.3-.21.57-.45.67-.45.2zm.98-1.64c.19-.36.42-.65.5-.65.1 0 .01.3-.18.65-.19.36-.42.65-.5.65-.1 0-.01-.3.18-.65zm4.86-1.97c-.7-.58-.71-.62-.1-.32.4.2.8.5.91.67.3.47.1.39-.8-.35zm-4.79-2.63a75.9 75.9 0 0 0-6.97-3.2c-1.83-.7-3.13-1.27-2.9-1.27.7-.02 5.9 2.09 9.02 3.66 2.32 1.16 3.05 1.4 3.37 1.1.33-.31.37-.3.17.06-.17.3 0 .65.52 1.04 1.14.88.82.74-3.2-1.39zm-11.16-4.7c.23-.1.51-.08.62.02.1.11-.08.19-.43.17-.37-.01-.45-.09-.2-.2zm-1.3-.33c.24-.1.52-.08.62.03.11.1-.08.18-.42.17-.38-.02-.46-.1-.2-.2zm-1.64-.31c.22-.1.59-.1.81 0 .22.09.04.16-.4.16-.45 0-.63-.07-.41-.16zM50.38 78c-1.34-.2-1.37-.23-.33-.26.63-.01 1.72.1 2.44.24 1.06.22 1.12.27.32.26-.53 0-1.63-.11-2.43-.24zm-4.28-.54c.24-.1.52-.09.62.02.11.1-.08.19-.42.17-.38-.01-.46-.1-.2-.2zm51.01 8.3c3.7-.48 7.08-1.36 10.4-2.7 3.26-1.3 4.9-2.26 4.57-2.63-.13-.14-.06-.16.17-.03.6.35 5.03-2.82 7.9-5.64 4.56-4.5 8.25-10.38 10.03-16 .8-2.48.68-3.26-.15-1.12-1.95 4.97-7.4 11.38-13.76 16.16-2.9 2.19-8.16 5.33-10.6 6.33-1.97.82-1.24.32 1.75-1.17 2.32-1.17 2.67-1.45 2.53-2.05-.14-.59-.11-.61.19-.16.31.47.59.39 2.49-.77 6.14-3.75 12.27-9.84 15.76-15.66.44-.73.3-.64-.51.33-5.12 6.04-11.09 8.95-18.57 9.04l-3.5.05-1.1 2.04a23.86 23.86 0 0 1-16.06 12.08l-2.1.46 1.29.23c.73.12-.2.17-2.1.1a24.97 24.97 0 0 1-4.03-.36c-.4-.15-.55-.11-.42.09.17.29 4.5 1.2 7.2 1.52 2.16.25 6.05.19 8.62-.14zm-6.91-1.5c.4-.08.98-.08 1.3 0 .3.09-.03.15-.74.15s-.97-.07-.56-.15zm2.83-.42a9.1 9.1 0 0 1 1.78-.25l.81-.01-.8.26a6.9 6.9 0 0 1-1.79.25h-.97l.97-.25zm3.24-.65c.36-.15.87-.28 1.14-.28.3 0 .25.1-.16.28-.36.15-.87.28-1.14.28-.3 0-.25-.1.16-.28zm2.27-.65c.36-.15.87-.28 1.14-.28.3 0 .25.1-.16.28-.36.16-.87.28-1.14.28-.3 0-.25-.1.16-.28zm2.11-.6c.27-.16.85-.39 1.3-.5.56-.16.66-.13.32.07-.26.17-.85.4-1.3.52-.56.15-.66.13-.32-.08zm2.6-1.02c.26-.17.63-.31.8-.31.19 0 .11.14-.15.31-.27.17-.64.31-.82.31-.17 0-.1-.14.17-.31zm5.67-5.84c-.27-.53-.43-.97-.34-.97.1 0 .39.44.67.97.27.54.43.98.34.98-.1 0-.4-.44-.67-.98zm21.26-41.39a39.97 39.97 0 0 0-20.27-23.14 39.24 39.24 0 0 0-15.26-4.07c-2.94-.22-12 .3-14.1.8-1.02.24-.92.28.97.34a201 201 0 0 0 4.7.07c1.74 0 2.12.06 1.13.17-1.45.16-1.44.16 1.3.76 1.64.36 4 1.22 5.82 2.12 2.52 1.24 3.56 2 5.88 4.3a23.2 23.2 0 0 1 4.13 5.2l1.32 2.41.7-1.19c.39-.66.78-1.2.87-1.2.08 0-.15.53-.52 1.16a8.63 8.63 0 0 0-.68 1.3c0 .08 1.43.14 3.19.14 6.42 0 11.6 2.16 16.33 6.81 2.34 2.3 2.7 2.57 2.12 1.53-1.89-3.35-6.97-8.74-11.18-11.85-.89-.66-2.03-1.53-2.55-1.94l-.94-.76.97.55c3.26 1.86 9.05 7.2 11.89 10.96a40.83 40.83 0 0 1 3.3 5.3c.73 1.47 1.38 2.62 1.45 2.55a9.38 9.38 0 0 0-.57-2.32zM108.46 18.1c.58-1.03 1.17-2 1.32-2.17.55-.61.25-1.04-1.22-1.75-.83-.4-1.43-.8-1.34-.89.16-.16 4.78 2.4 4.78 2.66 0 .08-.3-.01-.65-.2-.88-.48-1.05-.33-2.42 2.1a11.32 11.32 0 0 1-1.34 2.11c-.1 0 .3-.84.87-1.86zm-4.08-5.92c-1.07-.5-1.8-.93-1.62-.93.18 0 1.2.4 2.27.92 1.07.5 1.8.93 1.62.93-.18 0-1.2-.41-2.27-.92zm-3.57-1.47c-.53-.25-.75-.45-.48-.45s.85.2 1.3.46c1.02.59.47.58-.82-.01zm-3.73-1.15c-1.15-.39-1.38-.53-.66-.41 1.32.23 3.65 1.04 2.93 1.03-.26 0-1.28-.28-2.27-.62zm-4.37-.95c-.87-.22-.89-.25-.17-.25.45 0 1.25.12 1.79.25.87.22.88.25.16.25-.45 0-1.25-.11-1.78-.25zm-3.17-.55c.4-.08 1.06-.08 1.46 0 .4.08.08.14-.73.14-.8 0-1.13-.06-.73-.14z"/>
</svg>
